Sen-Regular.ufo
<glyph name="exclam" format="1">
  <advance width="300"/>
  <unicode hex="0021"/>
  <outline>
    <contour>
      <point x="191" y="670" type="line"/>
      <point x="109" y="670" type="line"/>
      <point x="109" y="220" type="line"/>
      <point x="191" y="220" type="line"/>
    </contour>
    <component base="period"/>
  </outline>
</glyph>
<glyph name="numbersign" format="1">
  <advance width="770"/>
  <unicode hex="0023"/>
  <outline>
    <contour>
      <point x="575" y="670" type="line"/>
      <point x="372" y="0" type="line"/>
      <point x="440" y="0" type="line"/>
      <point x="646" y="670" type="line"/>
    </contour>
    <contour>
      <point x="80" y="240" type="line"/>
      <point x="80" y="170" type="line"/>
      <point x="620" y="170" type="line"/>
      <point x="620" y="240" type="line"/>
    </contour>
    <contour>
      <point x="343" y="670" type="line"/>
      <point x="140" y="0" type="line"/>
      <point x="208" y="0" type="line"/>
      <point x="414" y="670" type="line"/>
    </contour>
    <contour>
      <point x="150" y="488" type="line"/>
      <point x="150" y="408" type="line"/>
      <point x="690" y="408" type="line"/>
      <point x="690" y="488" type="line"/>
    </contour>
  </outline>
</glyph>
<glyph name="dollar" format="1">
  <advance width="550"/>
  <unicode hex="0024"/>
  <outline>
    <contour>
      <point x="171" y="649"/>
      <point x="77" y="574"/>
      <point x="77" y="478" type="curve" smooth="yes"/>
      <point x="77" y="410"/>
      <point x="102" y="357"/>
      <point x="190" y="320" type="curve" smooth="yes"/>
      <point x="301" y="274" type="line" smooth="yes"/>
      <point x="338" y="259"/>
      <point x="388" y="232"/>
      <point x="388" y="187" type="curve" smooth="yes"/>
      <point x="388" y="133"/>
      <point x="335" y="101"/>
      <point x="274" y="101" type="curve" smooth="yes"/>
      <point x="196" y="101"/>
      <point x="135" y="132"/>
      <point x="88" y="165" type="curve"/>
      <point x="88" y="80" type="line"/>
      <point x="132" y="50"/>
      <point x="193" y="21"/>
      <point x="263" y="21" type="curve" smooth="yes"/>
      <point x="375" y="21"/>
      <point x="472" y="91"/>
      <point x="472" y="190" type="curve" smooth="yes"/>
      <point x="472" y="267"/>
      <point x="430" y="310"/>
      <point x="345" y="345" type="curve" smooth="yes"/>
      <point x="252" y="383" type="line" smooth="yes"/>
      <point x="201" y="404"/>
      <point x="162" y="426"/>
      <point x="162" y="475" type="curve" smooth="yes"/>
      <point x="162" y="540"/>
      <point x="233" y="569"/>
      <point x="288" y="569" type="curve" smooth="yes"/>
      <point x="345" y="569"/>
      <point x="405" y="541"/>
      <point x="439" y="516" type="curve"/>
      <point x="439" y="600" type="line"/>
      <point x="404" y="623"/>
      <point x="351" y="649"/>
      <point x="279" y="649" type="curve" smooth="yes"/>
    </contour>
    <contour>
      <point x="233" y="47" type="line"/>
      <point x="233" y="-60" type="line"/>
      <point x="305" y="-60" type="line"/>
      <point x="305" y="47" type="line"/>
    </contour>
    <contour>
      <point x="233" y="586" type="line"/>
      <point x="305" y="586" type="line"/>
      <point x="305" y="710" type="line"/>
      <point x="233" y="710" type="line"/>
    </contour>
  </outline>
</glyph>
<glyph name="percent" format="1">
  <advance width="824"/>
  <unicode hex="0025"/>
  <outline>
    <contour>
      <point x="180" y="7" type="line"/>
      <point x="233" y="-20" type="line"/>
      <point x="644" y="663" type="line"/>
      <point x="588" y="690" type="line"/>
    </contour>
    <contour>
      <point x="101" y="685"/>
      <point x="40" y="616"/>
      <point x="40" y="532" type="curve" smooth="yes"/>
      <point x="40" y="447"/>
      <point x="101" y="379"/>
      <point x="192" y="379" type="curve" smooth="yes"/>
      <point x="282" y="379"/>
      <point x="344" y="447"/>
      <point x="344" y="532" type="curve" smooth="yes"/>
      <point x="344" y="616"/>
      <point x="282" y="685"/>
      <point x="192" y="685" type="curve" smooth="yes"/>
    </contour>
    <contour>
      <point x="239" y="617"/>
      <point x="275" y="578"/>
      <point x="275" y="532" type="curve" smooth="yes"/>
      <point x="275" y="485"/>
      <point x="239" y="446"/>
      <point x="193" y="446" type="curve" smooth="yes"/>
      <point x="146" y="446"/>
      <point x="110" y="485"/>
      <point x="110" y="532" type="curve" smooth="yes"/>
      <point x="110" y="578"/>
      <point x="146" y="617"/>
      <point x="193" y="617" type="curve" smooth="yes"/>
    </contour>
    <contour>
      <point x="541" y="291"/>
      <point x="480" y="222"/>
      <point x="480" y="138" type="curve" smooth="yes"/>
      <point x="480" y="53"/>
      <point x="541" y="-15"/>
      <point x="632" y="-15" type="curve" smooth="yes"/>
      <point x="722" y="-15"/>
      <point x="784" y="53"/>
      <point x="784" y="138" type="curve" smooth="yes"/>
      <point x="784" y="222"/>
      <point x="722" y="291"/>
      <point x="632" y="291" type="curve" smooth="yes"/>
    </contour>
    <contour>
      <point x="679" y="223"/>
      <point x="715" y="184"/>
      <point x="715" y="138" type="curve" smooth="yes"/>
      <point x="715" y="91"/>
      <point x="679" y="52"/>
      <point x="633" y="52" type="curve" smooth="yes"/>
      <point x="586" y="52"/>
      <point x="550" y="91"/>
      <point x="550" y="138" type="curve" smooth="yes"/>
      <point x="550" y="184"/>
      <point x="586" y="223"/>
      <point x="633" y="223" type="curve" smooth="yes"/>
    </contour>
  </outline>
</glyph>
<glyph name="ampersand" format="1">
  <advance width="709"/>
  <unicode hex="0026"/>
  <outline>
    <contour>
      <point x="223" y="685"/>
      <point x="133" y="630"/>
      <point x="133" y="516" type="curve" smooth="yes"/>
      <point x="133" y="423"/>
      <point x="206" y="372"/>
      <point x="266" y="304" type="curve" smooth="yes"/>
      <point x="364" y="193"/>
      <point x="452" y="96"/>
      <point x="548" y="0" type="curve"/>
      <point x="659" y="0" type="line"/>
      <point x="538" y="129"/>
      <point x="435" y="237"/>
      <point x="333" y="353" type="curve" smooth="yes"/>
      <point x="284" y="409"/>
      <point x="232" y="456"/>
      <point x="232" y="512" type="curve" smooth="yes"/>
      <point x="232" y="575"/>
      <point x="276" y="597"/>
      <point x="316" y="597" type="curve" smooth="yes"/>
      <point x="354" y="597"/>
      <point x="402" y="574"/>
      <point x="402" y="522" type="curve" smooth="yes"/>
      <point x="402" y="363"/>
      <point x="50" y="376"/>
      <point x="50" y="170" type="curve" smooth="yes"/>
      <point x="50" y="62"/>
      <point x="138" y="-15"/>
      <point x="270" y="-15" type="curve" smooth="yes"/>
      <point x="377" y="-15"/>
      <point x="447" y="44"/>
      <point x="505" y="126" type="curve" smooth="yes"/>
      <point x="547" y="185"/>
      <point x="594" y="262"/>
      <point x="644" y="350" type="curve"/>
      <point x="546" y="350" type="line"/>
      <point x="500" y="270"/>
      <point x="470" y="218"/>
      <point x="433" y="170" type="curve" smooth="yes"/>
      <point x="393" y="118"/>
      <point x="359" y="73"/>
      <point x="273" y="73" type="curve" smooth="yes"/>
      <point x="201" y="73"/>
      <point x="149" y="108"/>
      <point x="149" y="170" type="curve" smooth="yes"/>
      <point x="149" y="263"/>
      <point x="284" y="294"/>
      <point x="377" y="354" type="curve" smooth="yes"/>
      <point x="444" y="397"/>
      <point x="501" y="441"/>
      <point x="501" y="522" type="curve" smooth="yes"/>
      <point x="501" y="627"/>
      <point x="405" y="685"/>
      <point x="316" y="685" type="curve" smooth="yes"/>
    </contour>
  </outline>
</glyph>
<glyph name="quotesingle" format="1">
  <advance width="242"/>
  <unicode hex="0027"/>
  <outline>
    <contour>
      <point x="80" y="670" type="line"/>
      <point x="80" y="416" type="line"/>
      <point x="162" y="416" type="line"/>
      <point x="162" y="670" type="line"/>
    </contour>
  </outline>
</glyph>
<glyph name="parenleft" format="1">
  <advance width="363"/>
  <unicode hex="0028"/>
  <outline>
    <contour>
      <point x="232" y="690" type="line"/>
      <point x="150" y="605"/>
      <point x="70" y="417"/>
      <point x="70" y="245" type="curve" smooth="yes"/>
      <point x="70" y="63"/>
      <point x="150" y="-115"/>
      <point x="232" y="-200" type="curve"/>
      <point x="323" y="-200" type="line"/>
      <point x="242" y="-110"/>
      <point x="172" y="85"/>
      <point x="172" y="245" type="curve" smooth="yes"/>
      <point x="172" y="395"/>
      <point x="242" y="600"/>
      <point x="323" y="690" type="curve"/>
    </contour>
  </outline>
</glyph>
<glyph name="asterisk" format="1">
  <advance width="494"/>
  <unicode hex="002A"/>
  <outline>
    <contour>
      <point x="211" y="705" type="line"/>
      <point x="217" y="583" type="line"/>
      <point x="113" y="627" type="line"/>
      <point x="90" y="559" type="line"/>
      <point x="198" y="528" type="line"/>
      <point x="122" y="433" type="line"/>
      <point x="180" y="391" type="line"/>
      <point x="247" y="494" type="line"/>
      <point x="314" y="391" type="line"/>
      <point x="372" y="433" type="line"/>
      <point x="296" y="528" type="line"/>
      <point x="404" y="559" type="line"/>
      <point x="381" y="627" type="line"/>
      <point x="277" y="583" type="line"/>
      <point x="283" y="705" type="line"/>
    </contour>
  </outline>
</glyph>
<glyph name="plus" format="1">
  <advance width="550"/>
  <unicode hex="002B"/>
  <outline>
    <contour>
      <point x="230" y="508" type="line"/>
      <point x="230" y="117" type="line"/>
      <point x="320" y="117" type="line"/>
      <point x="320" y="508" type="line"/>
    </contour>
    <contour>
      <point x="80" y="358" type="line"/>
      <point x="80" y="268" type="line"/>
      <point x="470" y="268" type="line"/>
      <point x="470" y="358" type="line"/>
    </contour>
  </outline>
</glyph>
<glyph name="comma" format="1">
  <advance width="282"/>
  <unicode hex="002C"/>
  <outline>
    <contour>
      <point x="50" y="-161" type="line"/>
      <point x="112" y="-177" type="line"/>
      <point x="202" y="90" type="line"/>
      <point x="120" y="118" type="line"/>
    </contour>
  </outline>
</glyph>
<glyph name="hyphen" format="1">
  <advance width="421"/>
  <unicode hex="002D"/>
  <outline>
    <contour>
      <point x="60" y="298" type="line"/>
      <point x="60" y="208" type="line"/>
      <point x="361" y="208" type="line"/>
      <point x="361" y="298" type="line"/>
    </contour>
  </outline>
</glyph>
<glyph name="period" format="1">
  <advance width="300"/>
  <unicode hex="002E"/>
  <outline>
    <contour>
      <point x="150" y="122" type="curve" smooth="yes"/>
      <point x="111" y="122"/>
      <point x="80" y="91"/>
      <point x="80" y="52" type="curve" smooth="yes"/>
      <point x="80" y="14"/>
      <point x="111" y="-18"/>
      <point x="150" y="-18" type="curve" smooth="yes"/>
      <point x="188" y="-18"/>
      <point x="220" y="14"/>
      <point x="220" y="52" type="curve" smooth="yes"/>
      <point x="220" y="91"/>
      <point x="188" y="122"/>
    </contour>
  </outline>
</glyph>
<glyph name="slash" format="1">
  <advance width="414"/>
  <unicode hex="002F"/>
  <outline>
    <contour>
      <point x="374" y="705" type="line"/>
      <point x="303" y="705" type="line"/>
      <point x="40" y="-200" type="line"/>
      <point x="108" y="-200" type="line"/>
    </contour>
  </outline>
</glyph>
<glyph name="zero" format="1">
  <advance width="550"/>
  <unicode hex="0030"/>
  <outline>
    <contour>
      <point x="106" y="685"/>
      <point x="25" y="507"/>
      <point x="25" y="335" type="curve" smooth="yes"/>
      <point x="25" y="163"/>
      <point x="106" y="-15"/>
      <point x="278" y="-15" type="curve" smooth="yes"/>
      <point x="450" y="-15"/>
      <point x="531" y="163"/>
      <point x="531" y="335" type="curve" smooth="yes"/>
      <point x="531" y="507"/>
      <point x="450" y="685"/>
      <point x="278" y="685" type="curve" smooth="yes"/>
    </contour>
    <contour>
      <point x="388" y="597"/>
      <point x="446" y="465"/>
      <point x="446" y="335" type="curve" smooth="yes"/>
      <point x="446" y="205"/>
      <point x="388" y="73"/>
      <point x="278" y="73" type="curve" smooth="yes"/>
      <point x="168" y="73"/>
      <point x="110" y="205"/>
      <point x="110" y="335" type="curve" smooth="yes"/>
      <point x="110" y="465"/>
      <point x="168" y="597"/>
      <point x="278" y="597" type="curve" smooth="yes"/>
    </contour>
  </outline>
</glyph>
<glyph name="one" format="1">
  <advance width="550"/>
  <unicode hex="0031"/>
  <outline>
    <contour>
      <point x="287" y="670" type="line"/>
      <point x="250" y="620"/>
      <point x="192" y="570"/>
      <point x="115" y="550" type="curve"/>
      <point x="115" y="464" type="line"/>
      <point x="157" y="472"/>
      <point x="201" y="481"/>
      <point x="241" y="516" type="curve"/>
      <point x="241" y="0" type="line"/>
      <point x="331" y="0" type="line"/>
      <point x="331" y="670" type="line"/>
    </contour>
    <contour>
      <point x="108" y="80" type="line"/>
      <point x="108" y="0" type="line"/>
      <point x="471" y="0" type="line"/>
      <point x="471" y="80" type="line"/>
    </contour>
  </outline>
</glyph>
<glyph name="two" format="1">
  <advance width="550"/>
  <unicode hex="0032"/>
  <outline>
    <contour>
      <point x="180" y="685"/>
      <point x="118" y="648"/>
      <point x="83" y="616" type="curve"/>
      <point x="83" y="522" type="line"/>
      <point x="121" y="557"/>
      <point x="182" y="597"/>
      <point x="248" y="597" type="curve" smooth="yes"/>
      <point x="328" y="597"/>
      <point x="393" y="554"/>
      <point x="393" y="467" type="curve" smooth="yes"/>
      <point x="393" y="378"/>
      <point x="267" y="263"/>
      <point x="63" y="36" type="curve"/>
      <point x="63" y="0" type="line"/>
      <point x="483" y="0" type="line"/>
      <point x="483" y="83" type="line"/>
      <point x="208" y="83" type="line"/>
      <point x="373" y="262"/>
      <point x="478" y="356"/>
      <point x="478" y="487" type="curve" smooth="yes"/>
      <point x="478" y="609"/>
      <point x="388" y="685"/>
      <point x="256" y="685" type="curve" smooth="yes"/>
    </contour>
  </outline>
</glyph>
<glyph name="four" format="1">
  <advance width="550"/>
  <unicode hex="0034"/>
  <outline>
    <contour>
      <point x="390" y="670" type="line"/>
      <point x="286" y="468"/>
      <point x="141" y="303"/>
      <point x="27" y="181" type="curve"/>
      <point x="27" y="148" type="line"/>
      <point x="333" y="148" type="line"/>
      <point x="333" y="0" type="line"/>
      <point x="423" y="0" type="line"/>
      <point x="423" y="148" type="line"/>
      <point x="528" y="148" type="line"/>
      <point x="528" y="224" type="line"/>
      <point x="423" y="224" type="line"/>
      <point x="423" y="670" type="line"/>
    </contour>
    <contour>
      <point x="333" y="224" type="line"/>
      <point x="167" y="224" type="line"/>
      <point x="225" y="289"/>
      <point x="280" y="367"/>
      <point x="333" y="450" type="curve"/>
    </contour>
  </outline>
</glyph>
<glyph name="five" format="1">
  <advance width="550"/>
  <unicode hex="0035"/>
  <outline>
    <contour>
      <point x="109" y="670" type="line"/>
      <point x="109" y="312" type="line"/>
      <point x="146" y="326"/>
      <point x="187" y="342"/>
      <point x="238" y="342" type="curve" smooth="yes"/>
      <point x="327" y="342"/>
      <point x="405" y="290"/>
      <point x="405" y="209" type="curve" smooth="yes"/>
      <point x="405" y="123"/>
      <point x="333" y="66"/>
      <point x="243" y="66" type="curve" smooth="yes"/>
      <point x="164" y="66"/>
      <point x="101" y="122"/>
      <point x="63" y="153" type="curve"/>
      <point x="63" y="54" type="line"/>
      <point x="98" y="22"/>
      <point x="170" y="-15"/>
      <point x="243" y="-15" type="curve" smooth="yes"/>
      <point x="385" y="-15"/>
      <point x="490" y="81"/>
      <point x="490" y="217" type="curve" smooth="yes"/>
      <point x="490" y="334"/>
      <point x="395" y="422"/>
      <point x="284" y="422" type="curve" smooth="yes"/>
      <point x="243" y="422"/>
      <point x="219" y="416"/>
      <point x="199" y="408" type="curve"/>
      <point x="199" y="587" type="line"/>
      <point x="463" y="587" type="line"/>
      <point x="463" y="670" type="line"/>
    </contour>
  </outline>
</glyph>
<glyph name="six" format="1">
  <advance width="550"/>
  <unicode hex="0036"/>
  <outline>
    <contour>
      <point x="308" y="670" type="line"/>
      <point x="239" y="600"/>
      <point x="48" y="442"/>
      <point x="48" y="243" type="curve" smooth="yes"/>
      <point x="48" y="83"/>
      <point x="155" y="-15"/>
      <point x="289" y="-15" type="curve" smooth="yes"/>
      <point x="431" y="-15"/>
      <point x="516" y="111"/>
      <point x="516" y="227" type="curve" smooth="yes"/>
      <point x="516" y="334"/>
      <point x="436" y="435"/>
      <point x="305" y="435" type="curve" smooth="yes"/>
      <point x="242" y="435"/>
      <point x="190" y="395"/>
      <point x="157" y="354" type="curve"/>
      <point x="196" y="458"/>
      <point x="359" y="593"/>
      <point x="441" y="670" type="curve"/>
    </contour>
    <contour>
      <point x="359" y="354"/>
      <point x="431" y="298"/>
      <point x="431" y="217" type="curve" smooth="yes"/>
      <point x="431" y="126"/>
      <point x="359" y="66"/>
      <point x="284" y="66" type="curve" smooth="yes"/>
      <point x="209" y="66"/>
      <point x="133" y="126"/>
      <point x="133" y="217" type="curve" smooth="yes"/>
      <point x="133" y="298"/>
      <point x="209" y="354"/>
      <point x="284" y="354" type="curve" smooth="yes"/>
    </contour>
  </outline>
</glyph>
<glyph name="seven" format="1">
  <advance width="550"/>
  <unicode hex="0037"/>
  <outline>
    <contour>
      <point x="51" y="670" type="line"/>
      <point x="51" y="587" type="line"/>
      <point x="407" y="587" type="line"/>
      <point x="281" y="401"/>
      <point x="149" y="232"/>
      <point x="149" y="0" type="curve"/>
      <point x="252" y="0" type="line"/>
      <point x="252" y="223"/>
      <point x="347" y="389"/>
      <point x="514" y="628" type="curve"/>
      <point x="514" y="670" type="line"/>
    </contour>
  </outline>
</glyph>
<glyph name="eight" format="1">
  <advance width="550"/>
  <unicode hex="0038"/>
  <outline>
    <contour>
      <point x="163" y="685"/>
      <point x="74" y="612"/>
      <point x="74" y="507" type="curve" smooth="yes"/>
      <point x="74" y="430"/>
      <point x="117" y="384"/>
      <point x="171" y="353" type="curve"/>
      <point x="108" y="324"/>
      <point x="54" y="263"/>
      <point x="54" y="187" type="curve" smooth="yes"/>
      <point x="54" y="75"/>
      <point x="143" y="-15"/>
      <point x="275" y="-15" type="curve" smooth="yes"/>
      <point x="407" y="-15"/>
      <point x="496" y="75"/>
      <point x="496" y="187" type="curve" smooth="yes"/>
      <point x="496" y="263"/>
      <point x="442" y="324"/>
      <point x="379" y="353" type="curve"/>
      <point x="433" y="384"/>
      <point x="476" y="430"/>
      <point x="476" y="507" type="curve" smooth="yes"/>
      <point x="476" y="612"/>
      <point x="387" y="685"/>
      <point x="275" y="685" type="curve" smooth="yes"/>
    </contour>
    <contour>
      <point x="342" y="312"/>
      <point x="411" y="259"/>
      <point x="411" y="192" type="curve" smooth="yes"/>
      <point x="411" y="125"/>
      <point x="352" y="66"/>
      <point x="275" y="66" type="curve" smooth="yes"/>
      <point x="198" y="66"/>
      <point x="139" y="125"/>
      <point x="139" y="192" type="curve" smooth="yes"/>
      <point x="139" y="259"/>
      <point x="208" y="312"/>
      <point x="275" y="312" type="curve" smooth="yes"/>
    </contour>
    <contour>
      <point x="332" y="604"/>
      <point x="391" y="559"/>
      <point x="391" y="497" type="curve" smooth="yes"/>
      <point x="391" y="435"/>
      <point x="332" y="396"/>
      <point x="275" y="396" type="curve" smooth="yes"/>
      <point x="218" y="396"/>
      <point x="159" y="435"/>
      <point x="159" y="497" type="curve" smooth="yes"/>
      <point x="159" y="559"/>
      <point x="218" y="604"/>
      <point x="275" y="604" type="curve" smooth="yes"/>
    </contour>
  </outline>
</glyph>
<glyph name="less" format="1">
  <advance width="500"/>
  <unicode hex="003C"/>
  <outline>
    <contour>
      <point x="460" y="592" type="line"/>
      <point x="60" y="327" type="line"/>
      <point x="60" y="276" type="line"/>
      <point x="460" y="0" type="line"/>
      <point x="460" y="98" type="line"/>
      <point x="154" y="303" type="line"/>
      <point x="460" y="494" type="line"/>
    </contour>
  </outline>
</glyph>
<glyph name="equal" format="1">
  <advance width="551"/>
  <unicode hex="003D"/>
  <outline>
    <contour>
      <point x="471" y="448" type="line"/>
      <point x="80" y="448" type="line"/>
      <point x="80" y="358" type="line"/>
      <point x="471" y="358" type="line"/>
    </contour>
    <contour>
      <point x="471" y="263" type="line"/>
      <point x="80" y="263" type="line"/>
      <point x="80" y="173" type="line"/>
      <point x="471" y="173" type="line"/>
    </contour>
  </outline>
</glyph>
<glyph name="question" format="1">
  <advance width="560"/>
  <unicode hex="003F"/>
  <outline>
    <contour>
      <point x="188" y="685"/>
      <point x="116" y="650"/>
      <point x="80" y="606" type="curve"/>
      <point x="80" y="497" type="line"/>
      <point x="128" y="558"/>
      <point x="175" y="590"/>
      <point x="255" y="590" type="curve" smooth="yes"/>
      <point x="335" y="590"/>
      <point x="378" y="542"/>
      <point x="378" y="477" type="curve" smooth="yes"/>
      <point x="378" y="391"/>
      <point x="203" y="331"/>
      <point x="203" y="258" type="curve" smooth="yes"/>
      <point x="203" y="218" type="line"/>
      <point x="300" y="218" type="line"/>
      <point x="299" y="239" type="line" smooth="yes"/>
      <point x="295" y="316"/>
      <point x="480" y="366"/>
      <point x="480" y="490" type="curve" smooth="yes"/>
      <point x="480" y="603"/>
      <point x="385" y="685"/>
      <point x="265" y="685" type="curve" smooth="yes"/>
    </contour>
    <component base="period" xOffset="106"/>
  </outline>
</glyph>
<glyph name="at" format="1">
  <advance width="824"/>
  <unicode hex="0040"/>
  <outline>
    <contour>
      <point x="218" y="612"/>
      <point x="50" y="456"/>
      <point x="50" y="243" type="curve" smooth="yes"/>
      <point x="50" y="30"/>
      <point x="208" y="-107"/>
      <point x="412" y="-107" type="curve" smooth="yes"/>
      <point x="511" y="-107"/>
      <point x="593" y="-75"/>
      <point x="684" y="-26" type="curve"/>
      <point x="648" y="35" type="line"/>
      <point x="568" y="-10"/>
      <point x="510" y="-32"/>
      <point x="412" y="-32" type="curve" smooth="yes"/>
      <point x="246" y="-32"/>
      <point x="133" y="77"/>
      <point x="133" y="243" type="curve" smooth="yes"/>
      <point x="133" y="410"/>
      <point x="256" y="536"/>
      <point x="412" y="536" type="curve" smooth="yes"/>
      <point x="569" y="536"/>
      <point x="691" y="440"/>
      <point x="691" y="273" type="curve" smooth="yes"/>
      <point x="691" y="172"/>
      <point x="639" y="120"/>
      <point x="592" y="120" type="curve" smooth="yes"/>
      <point x="536" y="120"/>
      <point x="540" y="160"/>
      <point x="555" y="224" type="curve" smooth="yes"/>
      <point x="603" y="432" type="line"/>
      <point x="531" y="432" type="line"/>
      <point x="522" y="383" type="line"/>
      <point x="497" y="419"/>
      <point x="457" y="439"/>
      <point x="415" y="439" type="curve" smooth="yes"/>
      <point x="307" y="439"/>
      <point x="222" y="363"/>
      <point x="201" y="243" type="curve" smooth="yes"/>
      <point x="183" y="142"/>
      <point x="240" y="56"/>
      <point x="335" y="56" type="curve" smooth="yes"/>
      <point x="390" y="56"/>
      <point x="435" y="80"/>
      <point x="471" y="129" type="curve"/>
      <point x="481" y="85"/>
      <point x="521" y="56"/>
      <point x="578" y="56" type="curve" smooth="yes"/>
      <point x="685" y="56"/>
      <point x="774" y="154"/>
      <point x="774" y="273" type="curve" smooth="yes"/>
      <point x="774" y="486"/>
      <point x="606" y="612"/>
      <point x="412" y="612" type="curve" smooth="yes"/>
    </contour>
    <contour>
      <point x="449" y="365"/>
      <point x="484" y="349"/>
      <point x="510" y="319" type="curve"/>
      <point x="491" y="237" type="line" smooth="yes"/>
      <point x="473" y="160"/>
      <point x="422" y="125"/>
      <point x="356" y="125" type="curve" smooth="yes"/>
      <point x="292" y="125"/>
      <point x="264" y="173"/>
      <point x="278" y="243" type="curve" smooth="yes"/>
      <point x="292" y="314"/>
      <point x="336" y="365"/>
      <point x="414" y="365" type="curve" smooth="yes"/>
    </contour>
  </outline>
</glyph>
<glyph name="A" format="1">
  <advance width="691"/>
  <unicode hex="0041"/>
  <outline>
    <contour>
      <point x="323" y="670" type="line"/>
      <point x="10" y="0" type="line"/>
      <point x="118" y="0" type="line"/>
      <point x="347" y="518" type="line"/>
      <point x="573" y="0" type="line"/>
      <point x="681" y="0" type="line"/>
      <point x="368" y="670" type="line"/>
    </contour>
    <contour>
      <point x="167" y="245" type="line"/>
      <point x="167" y="160" type="line"/>
      <point x="538" y="160" type="line"/>
      <point x="538" y="245" type="line"/>
    </contour>
    <contour>
      <point x="667" y="10" type="move" name="ogonek"/>
    </contour>
    <contour>
      <point x="346" y="670" type="move" name="top"/>
    </contour>
  </outline>
</glyph>
<glyph name="B" format="1">
  <advance width="688"/>
  <unicode hex="0042"/>
  <outline>
    <contour>
      <point x="110" y="670" type="line"/>
      <point x="110" y="15" type="line"/>
      <point x="173" y="1"/>
      <point x="271" y="-10"/>
      <point x="354" y="-10" type="curve" smooth="yes"/>
      <point x="516" y="-10"/>
      <point x="621" y="77"/>
      <point x="621" y="189" type="curve" smooth="yes"/>
      <point x="621" y="286"/>
      <point x="550" y="332"/>
      <point x="491" y="344" type="curve"/>
      <point x="560" y="370"/>
      <point x="589" y="434"/>
      <point x="589" y="489" type="curve" smooth="yes"/>
      <point x="589" y="598"/>
      <point x="497" y="670"/>
      <point x="378" y="670" type="curve" smooth="yes"/>
    </contour>
    <contour>
      <point x="441" y="585"/>
      <point x="497" y="550"/>
      <point x="497" y="479" type="curve" smooth="yes"/>
      <point x="497" y="418"/>
      <point x="441" y="375"/>
      <point x="357" y="375" type="curve" smooth="yes"/>
      <point x="184" y="375" type="line"/>
      <point x="184" y="295" type="line"/>
      <point x="359" y="295" type="line" smooth="yes"/>
      <point x="452" y="295"/>
      <point x="529" y="262"/>
      <point x="529" y="189" type="curve" smooth="yes"/>
      <point x="529" y="119"/>
      <point x="452" y="75"/>
      <point x="352" y="75" type="curve" smooth="yes"/>
      <point x="315" y="75"/>
      <point x="248" y="78"/>
      <point x="200" y="87" type="curve"/>
      <point x="200" y="585" type="line"/>
      <point x="357" y="585" type="line" smooth="yes"/>
    </contour>
  </outline>
</glyph>
<glyph name="C" format="1">
  <advance width="674"/>
  <unicode hex="0043"/>
  <outline>
    <contour>
      <point x="201" y="685"/>
      <point x="50" y="527"/>
      <point x="50" y="335" type="curve" smooth="yes"/>
      <point x="50" y="143"/>
      <point x="201" y="-15"/>
      <point x="403" y="-15" type="curve" smooth="yes"/>
      <point x="500" y="-15"/>
      <point x="577" y="19"/>
      <point x="624" y="61" type="curve"/>
      <point x="624" y="151" type="line"/>
      <point x="577" y="115"/>
      <point x="505" y="73"/>
      <point x="403" y="73" type="curve" smooth="yes"/>
      <point x="253" y="73"/>
      <point x="142" y="185"/>
      <point x="142" y="335" type="curve" smooth="yes"/>
      <point x="142" y="485"/>
      <point x="253" y="597"/>
      <point x="403" y="597" type="curve" smooth="yes"/>
      <point x="505" y="597"/>
      <point x="559" y="545"/>
      <point x="604" y="514" type="curve"/>
      <point x="604" y="613" type="line"/>
      <point x="557" y="655"/>
      <point x="500" y="685"/>
      <point x="403" y="685" type="curve" smooth="yes"/>
    </contour>
    <contour>
      <point x="405" y="670" type="move" name="top"/>
    </contour>
    <contour>
      <point x="397" y="0" type="move" name="bottom"/>
    </contour>
  </outline>
</glyph>
<glyph name="D" format="1">
  <advance width="759"/>
  <unicode hex="0044"/>
  <outline>
    <contour>
      <point x="356" y="686" type="curve" smooth="yes"/>
      <point x="264" y="686"/>
      <point x="191" y="676"/>
      <point x="110" y="661" type="curve"/>
      <point x="110" y="15" type="line"/>
      <point x="191" y="0"/>
      <point x="264" y="-10"/>
      <point x="356" y="-10" type="curve" smooth="yes"/>
      <point x="581" y="-10"/>
      <point x="709" y="140"/>
      <point x="709" y="338" type="curve" smooth="yes"/>
      <point x="709" y="536"/>
      <point x="581" y="686"/>
    </contour>
    <contour>
      <point x="356" y="601" type="curve" smooth="yes"/>
      <point x="518" y="601"/>
      <point x="617" y="488"/>
      <point x="617" y="338" type="curve" smooth="yes"/>
      <point x="617" y="188"/>
      <point x="518" y="75"/>
      <point x="356" y="75" type="curve" smooth="yes"/>
      <point x="308" y="75"/>
      <point x="250" y="79"/>
      <point x="200" y="85" type="curve"/>
      <point x="200" y="591" type="line"/>
      <point x="250" y="597"/>
      <point x="308" y="601"/>
    </contour>
    <contour>
      <point x="397" y="335" type="move" name="center"/>
    </contour>
    <contour>
      <point x="367" y="670" type="move" name="top"/>
    </contour>
  </outline>
</glyph>
<glyph name="E" format="1">
  <advance width="649"/>
  <unicode hex="0045"/>
  <outline>
    <contour>
      <point x="110" y="670" type="line"/>
      <point x="110" y="0" type="line"/>
      <point x="569" y="0" type="line"/>
      <point x="569" y="85" type="line"/>
      <point x="200" y="85" type="line"/>
      <point x="200" y="585" type="line"/>
      <point x="569" y="585" type="line"/>
      <point x="569" y="670" type="line"/>
    </contour>
    <contour>
      <point x="167" y="386" type="line"/>
      <point x="167" y="301" type="line"/>
      <point x="526" y="301" type="line"/>
      <point x="526" y="386" type="line"/>
    </contour>
    <contour>
      <point x="574" y="10" type="move" name="ogonek"/>
    </contour>
    <contour>
      <point x="320" y="0" type="move" name="bottom"/>
    </contour>
    <contour>
      <point x="340" y="670" type="move" name="top"/>
    </contour>
  </outline>
</glyph>
<glyph name="F" format="1">
  <advance width="635"/>
  <unicode hex="0046"/>
  <outline>
    <contour>
      <point x="110" y="670" type="line"/>
      <point x="110" y="0" type="line"/>
      <point x="200" y="0" type="line"/>
      <point x="200" y="585" type="line"/>
      <point x="548" y="585" type="line"/>
      <point x="548" y="670" type="line"/>
    </contour>
    <contour>
      <point x="180" y="361" type="line"/>
      <point x="180" y="276" type="line"/>
      <point x="488" y="276" type="line"/>
      <point x="488" y="361" type="line"/>
    </contour>
  </outline>
</glyph>
<glyph name="G" format="1">
  <advance width="701"/>
  <unicode hex="0047"/>
  <outline>
    <contour>
      <point x="201" y="685"/>
      <point x="50" y="527"/>
      <point x="50" y="335" type="curve" smooth="yes"/>
      <point x="50" y="143"/>
      <point x="201" y="-15"/>
      <point x="403" y="-15" type="curve" smooth="yes"/>
      <point x="520" y="-15"/>
      <point x="613" y="39"/>
      <point x="661" y="91" type="curve"/>
      <point x="564" y="131" type="line"/>
      <point x="541" y="112"/>
      <point x="505" y="73"/>
      <point x="403" y="73" type="curve" smooth="yes"/>
      <point x="253" y="73"/>
      <point x="142" y="185"/>
      <point x="142" y="335" type="curve" smooth="yes"/>
      <point x="142" y="485"/>
      <point x="253" y="597"/>
      <point x="403" y="597" type="curve" smooth="yes"/>
      <point x="505" y="597"/>
      <point x="559" y="545"/>
      <point x="604" y="514" type="curve"/>
      <point x="604" y="613" type="line"/>
      <point x="557" y="655"/>
      <point x="500" y="685"/>
      <point x="403" y="685" type="curve" smooth="yes"/>
    </contour>
    <contour>
      <point x="564" y="366" type="line"/>
      <point x="563" y="29" type="line"/>
      <point x="661" y="91" type="line"/>
      <point x="661" y="366" type="line"/>
    </contour>
    <contour>
      <point x="396" y="286" type="line"/>
      <point x="657" y="286" type="line"/>
      <point x="657" y="366" type="line"/>
      <point x="396" y="366" type="line"/>
    </contour>
    <contour>
      <point x="351" y="670" type="move" name="top"/>
    </contour>
    <contour>
      <point x="406" y="0" type="move" name="bottom"/>
    </contour>
  </outline>
</glyph>
<glyph name="H" format="1">
  <advance width="782"/>
  <unicode hex="0048"/>
  <outline>
    <contour>
      <point x="582" y="670" type="line"/>
      <point x="582" y="0" type="line"/>
      <point x="672" y="0" type="line"/>
      <point x="672" y="670" type="line"/>
    </contour>
    <contour>
      <point x="110" y="670" type="line"/>
      <point x="110" y="0" type="line"/>
      <point x="200" y="0" type="line"/>
      <point x="200" y="670" type="line"/>
    </contour>
    <contour>
      <point x="187" y="388" type="line"/>
      <point x="187" y="303" type="line"/>
      <point x="610" y="303" type="line"/>
      <point x="610" y="388" type="line"/>
    </contour>
  </outline>
</glyph>
<glyph name="I" format="1">
  <advance width="536"/>
  <unicode hex="0049"/>
  <outline>
    <contour>
      <point x="223" y="670" type="line"/>
      <point x="223" y="0" type="line"/>
      <point x="313" y="0" type="line"/>
      <point x="313" y="670" type="line"/>
    </contour>
    <contour>
      <point x="110" y="85" type="line"/>
      <point x="110" y="0" type="line"/>
      <point x="426" y="0" type="line"/>
      <point x="426" y="85" type="line"/>
    </contour>
    <contour>
      <point x="110" y="670" type="line"/>
      <point x="110" y="585" type="line"/>
      <point x="426" y="585" type="line"/>
      <point x="426" y="670" type="line"/>
    </contour>
    <contour>
      <point x="320" y="10" type="move" name="ogonek"/>
    </contour>
    <contour>
      <point x="272" y="670" type="move" name="top"/>
    </contour>
  </outline>
</glyph>
<glyph name="J" format="1">
  <advance width="315"/>
  <unicode hex="004A"/>
  <outline>
    <contour>
      <point x="115" y="672" type="line"/>
      <point x="115" y="16" type="line" smooth="yes"/>
      <point x="115" y="-65"/>
      <point x="59" y="-127"/>
      <point x="-55" y="-168" type="curve"/>
      <point x="-11" y="-255" type="line"/>
      <point x="114" y="-210"/>
      <point x="205" y="-136"/>
      <point x="205" y="34" type="curve" smooth="yes"/>
      <point x="205" y="672" type="line"/>
    </contour>
  </outline>
</glyph>
<glyph name="K" format="1">
  <advance width="672"/>
  <unicode hex="004B"/>
  <outline>
    <contour>
      <point x="506" y="670" type="line"/>
      <point x="139" y="248" type="line"/>
      <point x="168" y="160" type="line"/>
      <point x="632" y="670" type="line"/>
    </contour>
    <contour>
      <point x="110" y="670" type="line"/>
      <point x="110" y="0" type="line"/>
      <point x="200" y="0" type="line"/>
      <point x="200" y="670" type="line"/>
    </contour>
    <contour>
      <point x="251" y="329" type="line"/>
      <point x="537" y="0" type="line"/>
      <point x="662" y="0" type="line"/>
      <point x="319" y="398" type="line"/>
    </contour>
    <contour>
      <point x="336" y="670" type="move" name="top"/>
    </contour>
    <contour>
      <point x="336" y="0" type="move" name="bottom"/>
    </contour>
  </outline>
</glyph>
<glyph name="M" format="1">
  <advance width="843"/>
  <unicode hex="004D"/>
  <outline>
    <contour>
      <point x="705" y="670" type="line"/>
      <point x="424" y="363" type="line"/>
      <point x="138" y="670" type="line"/>
      <point x="110" y="670" type="line"/>
      <point x="110" y="0" type="line"/>
      <point x="200" y="0" type="line"/>
      <point x="200" y="485" type="line"/>
      <point x="412" y="264" type="line"/>
      <point x="436" y="264" type="line"/>
      <point x="643" y="485" type="line"/>
      <point x="643" y="0" type="line"/>
      <point x="733" y="0" type="line"/>
      <point x="733" y="670" type="line"/>
    </contour>
  </outline>
</glyph>
<glyph name="N" format="1">
  <advance width="779"/>
  <unicode hex="004E"/>
  <outline>
    <contour>
      <point x="669" y="670" type="line"/>
      <point x="579" y="670" type="line"/>
      <point x="579" y="185" type="line"/>
      <point x="144" y="670" type="line"/>
      <point x="110" y="670" type="line"/>
      <point x="110" y="0" type="line"/>
      <point x="200" y="0" type="line"/>
      <point x="200" y="479" type="line"/>
      <point x="635" y="0" type="line"/>
      <point x="669" y="0" type="line"/>
    </contour>
    <contour>
      <point x="389" y="0" type="move" name="bottom"/>
    </contour>
    <contour>
      <point x="387" y="670" type="move" name="top"/>
    </contour>
  </outline>
</glyph>
<glyph name="O" format="1">
  <advance width="806"/>
  <unicode hex="004F"/>
  <outline>
    <contour>
      <point x="201" y="685"/>
      <point x="50" y="527"/>
      <point x="50" y="335" type="curve" smooth="yes"/>
      <point x="50" y="143"/>
      <point x="201" y="-15"/>
      <point x="403" y="-15" type="curve" smooth="yes"/>
      <point x="605" y="-15"/>
      <point x="756" y="143"/>
      <point x="756" y="335" type="curve" smooth="yes"/>
      <point x="756" y="527"/>
      <point x="605" y="685"/>
      <point x="403" y="685" type="curve" smooth="yes"/>
    </contour>
    <contour>
      <point x="553" y="597"/>
      <point x="664" y="485"/>
      <point x="664" y="335" type="curve" smooth="yes"/>
      <point x="664" y="185"/>
      <point x="553" y="73"/>
      <point x="403" y="73" type="curve" smooth="yes"/>
      <point x="253" y="73"/>
      <point x="142" y="185"/>
      <point x="142" y="335" type="curve" smooth="yes"/>
      <point x="142" y="485"/>
      <point x="253" y="597"/>
      <point x="403" y="597" type="curve" smooth="yes"/>
    </contour>
    <contour>
      <point x="403" y="670" type="move" name="top"/>
    </contour>
  </outline>
</glyph>
<glyph name="P" format="1">
  <advance width="660"/>
  <unicode hex="0050"/>
  <outline>
    <contour>
      <point x="110" y="670" type="line"/>
      <point x="110" y="0" type="line"/>
      <point x="200" y="0" type="line"/>
      <point x="200" y="585" type="line"/>
      <point x="352" y="585" type="line" smooth="yes"/>
      <point x="438" y="585"/>
      <point x="518" y="534"/>
      <point x="518" y="449" type="curve" smooth="yes"/>
      <point x="518" y="374"/>
      <point x="460" y="314"/>
      <point x="359" y="314" type="curve" smooth="yes"/>
      <point x="291" y="314"/>
      <point x="220" y="333"/>
      <point x="188" y="350" type="curve"/>
      <point x="188" y="268" type="line"/>
      <point x="221" y="250"/>
      <point x="285" y="229"/>
      <point x="362" y="229" type="curve" smooth="yes"/>
      <point x="500" y="229"/>
      <point x="610" y="331"/>
      <point x="610" y="449" type="curve" smooth="yes"/>
      <point x="610" y="587"/>
      <point x="492" y="670"/>
      <point x="377" y="670" type="curve" smooth="yes"/>
    </contour>
  </outline>
</glyph>
<glyph name="Q" format="1">
  <advance width="831"/>
  <unicode hex="0051"/>
  <outline>
    <contour>
      <point x="201" y="685"/>
      <point x="50" y="527"/>
      <point x="50" y="335" type="curve" smooth="yes"/>
      <point x="50" y="143"/>
      <point x="201" y="-15"/>
      <point x="403" y="-15" type="curve" smooth="yes"/>
      <point x="605" y="-15"/>
      <point x="756" y="143"/>
      <point x="756" y="335" type="curve" smooth="yes"/>
      <point x="756" y="527"/>
      <point x="605" y="685"/>
      <point x="403" y="685" type="curve" smooth="yes"/>
    </contour>
    <contour>
      <point x="403" y="-15" type="line"/>
      <point x="506" y="-92"/>
      <point x="653" y="-154"/>
      <point x="764" y="-154" type="curve"/>
      <point x="764" y="-64" type="line"/>
      <point x="684" y="-64"/>
      <point x="549" y="-21"/>
      <point x="442" y="25" type="curve"/>
    </contour>
    <contour>
      <point x="553" y="597"/>
      <point x="664" y="485"/>
      <point x="664" y="335" type="curve" smooth="yes"/>
      <point x="664" y="185"/>
      <point x="553" y="73"/>
      <point x="403" y="73" type="curve" smooth="yes"/>
      <point x="253" y="73"/>
      <point x="142" y="185"/>
      <point x="142" y="335" type="curve" smooth="yes"/>
      <point x="142" y="485"/>
      <point x="253" y="597"/>
      <point x="403" y="597" type="curve" smooth="yes"/>
    </contour>
  </outline>
</glyph>
<glyph name="R" format="1">
  <advance width="666"/>
  <unicode hex="0052"/>
  <outline>
    <contour>
      <point x="110" y="670" type="line"/>
      <point x="110" y="0" type="line"/>
      <point x="200" y="0" type="line"/>
      <point x="200" y="585" type="line"/>
      <point x="352" y="585" type="line" smooth="yes"/>
      <point x="438" y="585"/>
      <point x="508" y="544"/>
      <point x="508" y="469" type="curve" smooth="yes"/>
      <point x="508" y="397"/>
      <point x="450" y="351"/>
      <point x="349" y="351" type="curve" smooth="yes"/>
      <point x="295" y="351"/>
      <point x="238" y="359"/>
      <point x="193" y="372" type="curve"/>
      <point x="193" y="297" type="line"/>
      <point x="226" y="289"/>
      <point x="319" y="278"/>
      <point x="362" y="278" type="curve" smooth="yes"/>
      <point x="478" y="278"/>
      <point x="600" y="344"/>
      <point x="600" y="469" type="curve" smooth="yes"/>
      <point x="600" y="607"/>
      <point x="482" y="670"/>
      <point x="367" y="670" type="curve" smooth="yes"/>
    </contour>
    <contour>
      <point x="183" y="297" type="line"/>
      <point x="518" y="0" type="line"/>
      <point x="656" y="0" type="line"/>
      <point x="265" y="334" type="line"/>
    </contour>
    <contour>
      <point x="308" y="670" type="move" name="top"/>
    </contour>
    <contour>
      <point x="366" y="0" type="move" name="bottom"/>
    </contour>
  </outline>
</glyph>
<glyph name="S" format="1">
  <advance width="523"/>
  <unicode hex="0053"/>
  <outline>
    <contour>
      <point x="153" y="680"/>
      <point x="50" y="598"/>
      <point x="50" y="492" type="curve" smooth="yes"/>
      <point x="50" y="417"/>
      <point x="78" y="361"/>
      <point x="174" y="318" type="curve" smooth="yes"/>
      <point x="285" y="268" type="line" smooth="yes"/>
      <point x="326" y="250"/>
      <point x="381" y="222"/>
      <point x="381" y="172" type="curve" smooth="yes"/>
      <point x="381" y="113"/>
      <point x="322" y="78"/>
      <point x="255" y="78" type="curve" smooth="yes"/>
      <point x="170" y="78"/>
      <point x="103" y="112"/>
      <point x="51" y="148" type="curve"/>
      <point x="51" y="55" type="line"/>
      <point x="99" y="21"/>
      <point x="166" y="-10"/>
      <point x="243" y="-10" type="curve" smooth="yes"/>
      <point x="366" y="-10"/>
      <point x="473" y="67"/>
      <point x="473" y="176" type="curve" smooth="yes"/>
      <point x="473" y="260"/>
      <point x="426" y="304"/>
      <point x="334" y="346" type="curve" smooth="yes"/>
      <point x="242" y="388" type="line" smooth="yes"/>
      <point x="187" y="413"/>
      <point x="143" y="435"/>
      <point x="143" y="489" type="curve" smooth="yes"/>
      <point x="143" y="561"/>
      <point x="221" y="592"/>
      <point x="282" y="592" type="curve" smooth="yes"/>
      <point x="344" y="592"/>
      <point x="399" y="562"/>
      <point x="437" y="534" type="curve"/>
      <point x="437" y="627" type="line"/>
      <point x="398" y="652"/>
      <point x="351" y="680"/>
      <point x="272" y="680" type="curve" smooth="yes"/>
    </contour>
    <contour>
      <point x="273" y="670" type="move" name="top"/>
    </contour>
    <contour>
      <point x="262" y="0" type="move" name="bottom"/>
    </contour>
  </outline>
</glyph>
<glyph name="T" format="1">
  <advance width="611"/>
  <unicode hex="0054"/>
  <outline>
    <contour>
      <point x="351" y="670" type="line"/>
      <point x="261" y="670" type="line"/>
      <point x="261" y="3" type="line"/>
      <point x="351" y="3" type="line"/>
    </contour>
    <contour>
      <point x="582" y="670" type="line"/>
      <point x="30" y="670" type="line"/>
      <point x="30" y="585" type="line"/>
      <point x="582" y="585" type="line"/>
    </contour>
    <contour>
      <point x="306" y="0" type="move" name="bottom"/>
    </contour>
    <contour>
      <point x="306" y="335" type="move" name="center"/>
    </contour>
    <contour>
      <point x="306" y="670" type="move" name="top"/>
    </contour>
  </outline>
</glyph>
<glyph name="U" format="1">
  <advance width="752"/>
  <unicode hex="0055"/>
  <outline>
    <contour>
      <point x="652" y="672" type="line"/>
      <point x="562" y="672" type="line"/>
      <point x="562" y="268" type="line" smooth="yes"/>
      <point x="562" y="132"/>
      <point x="476" y="80"/>
      <point x="376" y="79" type="curve" smooth="yes"/>
      <point x="276" y="78"/>
      <point x="190" y="132"/>
      <point x="190" y="268" type="curve" smooth="yes"/>
      <point x="190" y="672" type="line"/>
      <point x="100" y="672" type="line"/>
      <point x="100" y="265" type="line" smooth="yes"/>
      <point x="100" y="90"/>
      <point x="219" y="-13"/>
      <point x="376" y="-13" type="curve" smooth="yes"/>
      <point x="533" y="-13"/>
      <point x="652" y="90"/>
      <point x="652" y="265" type="curve" smooth="yes"/>
    </contour>
    <contour>
      <point x="469" y="10" type="move" name="ogonek"/>
    </contour>
    <contour>
      <point x="376" y="670" type="move" name="top"/>
    </contour>
  </outline>
</glyph>
<glyph name="V" format="1">
  <advance width="691"/>
  <unicode hex="0056"/>
  <outline>
    <contour>
      <point x="681" y="670" type="line"/>
      <point x="573" y="670" type="line"/>
      <point x="344" y="152" type="line"/>
      <point x="118" y="670" type="line"/>
      <point x="10" y="670" type="line"/>
      <point x="323" y="0" type="line"/>
      <point x="368" y="0" type="line"/>
    </contour>
  </outline>
</glyph>
<glyph name="W" format="1">
  <advance width="944"/>
  <unicode hex="0057"/>
  <outline>
    <contour>
      <point x="836" y="670" type="line"/>
      <point x="672" y="172" type="line"/>
      <point x="500" y="669" type="line"/>
      <point x="442" y="670" type="line"/>
      <point x="265" y="172" type="line"/>
      <point x="108" y="670" type="line"/>
      <point x="10" y="670" type="line"/>
      <point x="235" y="0" type="line"/>
      <point x="286" y="0" type="line"/>
      <point x="468" y="507" type="line"/>
      <point x="648" y="0" type="line"/>
      <point x="699" y="0" type="line"/>
      <point x="934" y="670" type="line"/>
    </contour>
    <contour>
      <point x="472" y="670" type="move" name="top"/>
    </contour>
  </outline>
</glyph>
<glyph name="X" format="1">
  <advance width="644"/>
  <unicode hex="0058"/>
  <outline>
    <contour>
      <point x="514" y="670" type="line"/>
      <point x="320" y="397" type="line"/>
      <point x="130" y="670" type="line"/>
      <point x="10" y="670" type="line"/>
      <point x="261" y="335" type="line"/>
      <point x="10" y="0" type="line"/>
      <point x="120" y="0" type="line"/>
      <point x="312" y="262" type="line"/>
      <point x="514" y="0" type="line"/>
      <point x="634" y="0" type="line"/>
      <point x="371" y="325" type="line"/>
      <point x="634" y="670" type="line"/>
    </contour>
  </outline>
</glyph>
<glyph name="Y" format="1">
  <advance width="631"/>
  <unicode hex="0059"/>
  <outline>
    <contour>
      <point x="513" y="670" type="line"/>
      <point x="314" y="354" type="line"/>
      <point x="118" y="670" type="line"/>
      <point x="10" y="670" type="line"/>
      <point x="295" y="217" type="line"/>
      <point x="326" y="217" type="line"/>
      <point x="621" y="670" type="line"/>
    </contour>
    <contour>
      <point x="267" y="304" type="line"/>
      <point x="267" y="0" type="line"/>
      <point x="364" y="0" type="line"/>
      <point x="364" y="304" type="line"/>
    </contour>
    <contour>
      <point x="316" y="670" type="move" name="top"/>
    </contour>
  </outline>
</glyph>
<glyph name="Z" format="1">
  <advance width="651"/>
  <unicode hex="005A"/>
  <outline>
    <contour>
      <point x="67" y="670" type="line"/>
      <point x="67" y="585" type="line"/>
      <point x="439" y="585" type="line"/>
      <point x="67" y="36" type="line"/>
      <point x="67" y="0" type="line"/>
      <point x="584" y="0" type="line"/>
      <point x="584" y="85" type="line"/>
      <point x="201" y="85" type="line"/>
      <point x="584" y="634" type="line"/>
      <point x="584" y="670" type="line"/>
    </contour>
    <contour>
      <point x="326" y="670" type="move" name="top"/>
    </contour>
  </outline>
</glyph>
<glyph name="bracketleft" format="1">
  <advance width="379"/>
  <unicode hex="005B"/>
  <outline>
    <contour>
      <point x="80" y="690" type="line"/>
      <point x="80" y="-200" type="line"/>
      <point x="339" y="-200" type="line"/>
      <point x="339" y="-110" type="line"/>
      <point x="177" y="-110" type="line"/>
      <point x="177" y="600" type="line"/>
      <point x="339" y="600" type="line"/>
      <point x="339" y="690" type="line"/>
    </contour>
  </outline>
</glyph>
<glyph name="backslash" format="1">
  <advance width="364"/>
  <unicode hex="005C"/>
  <outline>
    <contour>
      <point x="-10" y="670" type="line"/>
      <point x="306" y="-200" type="line"/>
      <point x="374" y="-200" type="line"/>
      <point x="61" y="670" type="line"/>
    </contour>
  </outline>
</glyph>
<glyph name="asciicircum" format="1">
  <advance width="603"/>
  <unicode hex="005E"/>
  <outline>
    <contour>
      <point x="322" y="670" type="line"/>
      <point x="271" y="670" type="line"/>
      <point x="60" y="310" type="line"/>
      <point x="148" y="310" type="line"/>
      <point x="295" y="578" type="line"/>
      <point x="455" y="310" type="line"/>
      <point x="543" y="310" type="line"/>
    </contour>
  </outline>
</glyph>
<glyph name="grave" format="1">
  <advance width="314"/>
  <unicode hex="0060"/>
  <outline>
    <contour>
      <point x="19" y="720" type="line"/>
      <point x="161" y="585" type="line"/>
      <point x="243" y="585" type="line"/>
      <point x="133" y="720" type="line"/>
    </contour>
    <contour>
      <point x="198" y="500" type="move" name="_top"/>
    </contour>
  </outline>
</glyph>
<glyph name="a" format="1">
  <advance width="622"/>
  <unicode hex="0061"/>
  <outline>
    <contour>
      <point x="154" y="510"/>
      <point x="50" y="407"/>
      <point x="50" y="242" type="curve" smooth="yes"/>
      <point x="50" y="90"/>
      <point x="154" y="-15"/>
      <point x="283" y="-15" type="curve" smooth="yes"/>
      <point x="359" y="-15"/>
      <point x="420" y="32"/>
      <point x="455" y="85" type="curve"/>
      <point x="455" y="0" type="line"/>
      <point x="537" y="0" type="line"/>
      <point x="537" y="500" type="line"/>
      <point x="455" y="500" type="line"/>
      <point x="455" y="433" type="line"/>
      <point x="412" y="481"/>
      <point x="348" y="510"/>
      <point x="291" y="510" type="curve" smooth="yes"/>
    </contour>
    <contour>
      <point x="367" y="430"/>
      <point x="412" y="399"/>
      <point x="454" y="347" type="curve"/>
      <point x="455" y="251" type="line" smooth="yes"/>
      <point x="456" y="144"/>
      <point x="387" y="65"/>
      <point x="296" y="65" type="curve" smooth="yes"/>
      <point x="199" y="65"/>
      <point x="135" y="145"/>
      <point x="135" y="242" type="curve" smooth="yes"/>
      <point x="135" y="339"/>
      <point x="199" y="430"/>
      <point x="306" y="430" type="curve" smooth="yes"/>
    </contour>
    <contour>
      <point x="540" y="10" type="move" name="ogonek"/>
    </contour>
    <contour>
      <point x="311" y="500" type="move" name="top"/>
    </contour>
  </outline>
</glyph>
<glyph name="b" format="1">
  <advance width="622"/>
  <unicode hex="0062"/>
  <outline>
    <contour>
      <point x="274" y="510"/>
      <point x="210" y="481"/>
      <point x="167" y="433" type="curve"/>
      <point x="167" y="720" type="line"/>
      <point x="85" y="720" type="line"/>
      <point x="85" y="0" type="line"/>
      <point x="167" y="0" type="line"/>
      <point x="167" y="85" type="line"/>
      <point x="202" y="32"/>
      <point x="263" y="-15"/>
      <point x="339" y="-15" type="curve" smooth="yes"/>
      <point x="468" y="-15"/>
      <point x="572" y="90"/>
      <point x="572" y="242" type="curve" smooth="yes"/>
      <point x="572" y="407"/>
      <point x="468" y="510"/>
      <point x="331" y="510" type="curve" smooth="yes"/>
    </contour>
    <contour>
      <point x="423" y="429"/>
      <point x="487" y="339"/>
      <point x="487" y="242" type="curve" smooth="yes"/>
      <point x="487" y="145"/>
      <point x="423" y="66"/>
      <point x="326" y="66" type="curve" smooth="yes"/>
      <point x="235" y="66"/>
      <point x="166" y="144"/>
      <point x="167" y="251" type="curve" smooth="yes"/>
      <point x="168" y="347" type="line"/>
      <point x="210" y="399"/>
      <point x="255" y="429"/>
      <point x="316" y="429" type="curve" smooth="yes"/>
    </contour>
  </outline>
</glyph>
<glyph name="c" format="1">
  <advance width="511"/>
  <unicode hex="0063"/>
  <outline>
    <contour>
      <point x="159" y="510"/>
      <point x="50" y="389"/>
      <point x="50" y="247" type="curve" smooth="yes"/>
      <point x="50" y="105"/>
      <point x="159" y="-15"/>
      <point x="311" y="-15" type="curve" smooth="yes"/>
      <point x="384" y="-15"/>
      <point x="441" y="14"/>
      <point x="461" y="34" type="curve"/>
      <point x="461" y="117" type="line"/>
      <point x="423" y="89"/>
      <point x="378" y="65"/>
      <point x="311" y="65" type="curve" smooth="yes"/>
      <point x="204" y="65"/>
      <point x="135" y="150"/>
      <point x="135" y="247" type="curve" smooth="yes"/>
      <point x="135" y="344"/>
      <point x="204" y="430"/>
      <point x="311" y="430" type="curve" smooth="yes"/>
      <point x="378" y="430"/>
      <point x="423" y="406"/>
      <point x="461" y="378" type="curve"/>
      <point x="461" y="461" type="line"/>
      <point x="441" y="480"/>
      <point x="384" y="510"/>
      <point x="311" y="510" type="curve" smooth="yes"/>
    </contour>
    <contour>
      <point x="300" y="500" type="move" name="top"/>
    </contour>
    <contour>
      <point x="293" y="0" type="move" name="bottom"/>
    </contour>
  </outline>
</glyph>
<glyph name="e" format="1">
  <advance width="571"/>
  <unicode hex="0065"/>
  <outline>
    <contour>
      <point x="150" y="510"/>
      <point x="50" y="389"/>
      <point x="50" y="247" type="curve" smooth="yes"/>
      <point x="50" y="105"/>
      <point x="159" y="-15"/>
      <point x="311" y="-15" type="curve" smooth="yes"/>
      <point x="389" y="-15"/>
      <point x="441" y="19"/>
      <point x="461" y="39" type="curve"/>
      <point x="461" y="122" type="line"/>
      <point x="428" y="98"/>
      <point x="383" y="65"/>
      <point x="311" y="65" type="curve" smooth="yes"/>
      <point x="204" y="65"/>
      <point x="135" y="150"/>
      <point x="135" y="247" type="curve" smooth="yes"/>
      <point x="135" y="344"/>
      <point x="195" y="430"/>
      <point x="291" y="430" type="curve" smooth="yes"/>
      <point x="361" y="430"/>
      <point x="430" y="385"/>
      <point x="440" y="288" type="curve"/>
      <point x="127" y="288" type="line"/>
      <point x="127" y="218" type="line"/>
      <point x="521" y="218" type="line"/>
      <point x="521" y="267" type="line" smooth="yes"/>
      <point x="521" y="404"/>
      <point x="445" y="510"/>
      <point x="291" y="510" type="curve" smooth="yes"/>
    </contour>
    <contour>
      <point x="406" y="10" type="move" name="ogonek"/>
    </contour>
    <contour>
      <point x="276" y="0" type="move" name="bottom"/>
    </contour>
    <contour>
      <point x="296" y="500" type="move" name="top"/>
    </contour>
  </outline>
</glyph>
<glyph name="f" format="1">
  <advance width="368"/>
  <unicode hex="0066"/>
  <outline>
    <contour>
      <point x="196" y="735"/>
      <point x="116" y="681"/>
      <point x="116" y="564" type="curve" smooth="yes"/>
      <point x="116" y="0" type="line"/>
      <point x="198" y="0" type="line"/>
      <point x="198" y="555" type="line" smooth="yes"/>
      <point x="198" y="629"/>
      <point x="227" y="655"/>
      <point x="276" y="657" type="curve" smooth="yes"/>
      <point x="304" y="658"/>
      <point x="334" y="649"/>
      <point x="354" y="636" type="curve"/>
      <point x="354" y="708" type="line"/>
      <point x="334" y="725"/>
      <point x="305" y="735"/>
      <point x="271" y="735" type="curve" smooth="yes"/>
    </contour>
    <contour>
      <point x="37" y="500" type="line"/>
      <point x="37" y="423" type="line"/>
      <point x="344" y="423" type="line"/>
      <point x="344" y="500" type="line"/>
    </contour>
  </outline>
</glyph>
<glyph name="g" format="1">
  <advance width="622"/>
  <unicode hex="0067"/>
  <outline>
    <contour>
      <point x="154" y="510"/>
      <point x="50" y="407"/>
      <point x="50" y="242" type="curve" smooth="yes"/>
      <point x="50" y="90"/>
      <point x="154" y="-15"/>
      <point x="283" y="-15" type="curve" smooth="yes"/>
      <point x="359" y="-15"/>
      <point x="420" y="32"/>
      <point x="455" y="85" type="curve"/>
      <point x="455" y="-20" type="line" smooth="yes"/>
      <point x="455" y="-119"/>
      <point x="371" y="-175"/>
      <point x="274" y="-175" type="curve" smooth="yes"/>
      <point x="187" y="-175"/>
      <point x="119" y="-129"/>
      <point x="91" y="-113" type="curve"/>
      <point x="91" y="-201" type="line"/>
      <point x="126" y="-223"/>
      <point x="181" y="-255"/>
      <point x="274" y="-255" type="curve" smooth="yes"/>
      <point x="416" y="-255"/>
      <point x="537" y="-169"/>
      <point x="537" y="10" type="curve" smooth="yes"/>
      <point x="537" y="500" type="line"/>
      <point x="455" y="500" type="line"/>
      <point x="455" y="433" type="line"/>
      <point x="412" y="481"/>
      <point x="348" y="510"/>
      <point x="291" y="510" type="curve" smooth="yes"/>
    </contour>
    <contour>
      <point x="367" y="429"/>
      <point x="412" y="399"/>
      <point x="454" y="347" type="curve"/>
      <point x="455" y="251" type="line" smooth="yes"/>
      <point x="456" y="144"/>
      <point x="387" y="66"/>
      <point x="296" y="66" type="curve" smooth="yes"/>
      <point x="199" y="66"/>
      <point x="135" y="145"/>
      <point x="135" y="242" type="curve" smooth="yes"/>
      <point x="135" y="339"/>
      <point x="199" y="429"/>
      <point x="306" y="429" type="curve" smooth="yes"/>
    </contour>
  </outline>
</glyph>
<glyph name="h" format="1">
  <advance width="585"/>
  <unicode hex="0068"/>
  <outline>
    <contour>
      <point x="85" y="720" type="line"/>
      <point x="85" y="0" type="line"/>
      <point x="167" y="0" type="line"/>
      <point x="167" y="720" type="line"/>
    </contour>
    <contour>
      <point x="262" y="510"/>
      <point x="198" y="460"/>
      <point x="167" y="421" type="curve"/>
      <point x="167" y="332" type="line"/>
      <point x="207" y="384"/>
      <point x="263" y="430"/>
      <point x="316" y="430" type="curve" smooth="yes"/>
      <point x="395" y="430"/>
      <point x="432" y="383"/>
      <point x="432" y="297" type="curve" smooth="yes"/>
      <point x="433" y="0" type="line"/>
      <point x="515" y="0" type="line"/>
      <point x="515" y="305" type="line" smooth="yes"/>
      <point x="515" y="443"/>
      <point x="432" y="510"/>
      <point x="330" y="510" type="curve" smooth="yes"/>
    </contour>
  </outline>
</glyph>
<glyph name="i" format="1">
  <advance width="308"/>
  <unicode hex="0069"/>
  <outline>
    <contour>
      <point x="126" y="740"/>
      <point x="97" y="708"/>
      <point x="97" y="672" type="curve" smooth="yes"/>
      <point x="97" y="637"/>
      <point x="126" y="604"/>
      <point x="165" y="604" type="curve" smooth="yes"/>
      <point x="203" y="604"/>
      <point x="233" y="637"/>
      <point x="233" y="672" type="curve" smooth="yes"/>
      <point x="233" y="708"/>
      <point x="203" y="740"/>
      <point x="165" y="740" type="curve" smooth="yes"/>
    </contour>
    <component base="idotless"/>
    <contour>
      <point x="218" y="0" type="move" name="ogonek"/>
    </contour>
    <contour>
      <point x="177" y="500" type="move" name="top"/>
    </contour>
  </outline>
</glyph>
<glyph name="j" format="1">
  <advance width="289"/>
  <unicode hex="006A"/>
  <outline>
    <contour>
      <point x="122" y="500" type="line"/>
      <point x="122" y="-10" type="line" smooth="yes"/>
      <point x="122" y="-92"/>
      <point x="83" y="-139"/>
      <point x="-5" y="-181" type="curve"/>
      <point x="32" y="-255" type="line"/>
      <point x="137" y="-212"/>
      <point x="204" y="-133"/>
      <point x="204" y="2" type="curve" smooth="yes"/>
      <point x="204" y="500" type="line"/>
    </contour>
    <contour>
      <point x="43" y="500" type="line"/>
      <point x="43" y="423" type="line"/>
      <point x="198" y="423" type="line"/>
      <point x="198" y="500" type="line"/>
    </contour>
    <contour>
      <point x="112" y="740"/>
      <point x="83" y="708"/>
      <point x="83" y="672" type="curve" smooth="yes"/>
      <point x="83" y="637"/>
      <point x="112" y="604"/>
      <point x="151" y="604" type="curve" smooth="yes"/>
      <point x="189" y="604"/>
      <point x="219" y="637"/>
      <point x="219" y="672" type="curve" smooth="yes"/>
      <point x="219" y="708"/>
      <point x="189" y="740"/>
      <point x="151" y="740" type="curve" smooth="yes"/>
    </contour>
  </outline>
</glyph>
<glyph name="k" format="1">
  <advance width="545"/>
  <unicode hex="006B"/>
  <outline>
    <contour>
      <point x="416" y="500" type="line"/>
      <point x="143" y="233" type="line"/>
      <point x="143" y="139" type="line"/>
      <point x="527" y="500" type="line"/>
    </contour>
    <contour>
      <point x="85" y="720" type="line"/>
      <point x="85" y="0" type="line"/>
      <point x="167" y="0" type="line"/>
      <point x="167" y="720" type="line"/>
    </contour>
    <contour>
      <point x="208" y="263" type="line"/>
      <point x="436" y="0" type="line"/>
      <point x="540" y="0" type="line"/>
      <point x="262" y="321" type="line"/>
    </contour>
    <contour>
      <point x="278" y="0" type="move" name="bottom"/>
    </contour>
  </outline>
</glyph>
<glyph name="l" format="1">
  <advance width="252"/>
  <unicode hex="006C"/>
  <outline>
    <contour>
      <point x="85" y="720" type="line"/>
      <point x="85" y="0" type="line"/>
      <point x="167" y="0" type="line"/>
      <point x="167" y="720" type="line"/>
    </contour>
    <contour>
      <point x="126" y="720" type="move" name="top"/>
    </contour>
    <contour>
      <point x="126" y="0" type="move" name="bottom"/>
    </contour>
    <contour>
      <point x="237" y="500" type="move" name="topright"/>
    </contour>
  </outline>
</glyph>
<glyph name="m" format="1">
  <advance width="927"/>
  <unicode hex="006D"/>
  <outline>
    <contour>
      <point x="584" y="510"/>
      <point x="531" y="458"/>
      <point x="482" y="399" type="curve"/>
      <point x="506" y="332" type="line"/>
      <point x="546" y="384"/>
      <point x="587" y="430"/>
      <point x="648" y="430" type="curve" smooth="yes"/>
      <point x="727" y="430"/>
      <point x="774" y="383"/>
      <point x="774" y="297" type="curve" smooth="yes"/>
      <point x="775" y="0" type="line"/>
      <point x="857" y="0" type="line"/>
      <point x="857" y="305" type="line" smooth="yes"/>
      <point x="857" y="443"/>
      <point x="764" y="510"/>
      <point x="662" y="510" type="curve" smooth="yes"/>
    </contour>
    <contour>
      <point x="85" y="500" type="line"/>
      <point x="85" y="0" type="line"/>
      <point x="167" y="0" type="line"/>
      <point x="167" y="500" type="line"/>
    </contour>
    <contour>
      <point x="239" y="510"/>
      <point x="185" y="460"/>
      <point x="154" y="421" type="curve"/>
      <point x="154" y="332" type="line"/>
      <point x="194" y="384"/>
      <point x="242" y="430"/>
      <point x="303" y="430" type="curve" smooth="yes"/>
      <point x="382" y="430"/>
      <point x="429" y="383"/>
      <point x="429" y="297" type="curve" smooth="yes"/>
      <point x="430" y="0" type="line"/>
      <point x="512" y="0" type="line"/>
      <point x="512" y="356" type="line"/>
      <point x="501" y="380" type="line"/>
      <point x="474" y="467"/>
      <point x="398" y="510"/>
      <point x="317" y="510" type="curve" smooth="yes"/>
    </contour>
  </outline>
</glyph>
<glyph name="n" format="1">
  <advance width="585"/>
  <unicode hex="006E"/>
  <outline>
    <contour>
      <point x="262" y="510"/>
      <point x="198" y="460"/>
      <point x="167" y="421" type="curve"/>
      <point x="167" y="332" type="line"/>
      <point x="207" y="384"/>
      <point x="263" y="430"/>
      <point x="316" y="430" type="curve" smooth="yes"/>
      <point x="395" y="430"/>
      <point x="432" y="383"/>
      <point x="432" y="297" type="curve" smooth="yes"/>
      <point x="433" y="0" type="line"/>
      <point x="515" y="0" type="line"/>
      <point x="515" y="305" type="line" smooth="yes"/>
      <point x="515" y="443"/>
      <point x="432" y="510"/>
      <point x="330" y="510" type="curve" smooth="yes"/>
    </contour>
    <contour>
      <point x="85" y="500" type="line"/>
      <point x="85" y="0" type="line"/>
      <point x="167" y="0" type="line"/>
      <point x="167" y="500" type="line"/>
    </contour>
    <contour>
      <point x="306" y="500" type="move" name="top"/>
    </contour>
    <contour>
      <point x="298" y="0" type="move" name="bottom"/>
    </contour>
  </outline>
</glyph>
<glyph name="o" format="1">
  <advance width="622"/>
  <unicode hex="006F"/>
  <outline>
    <contour>
      <point x="159" y="510"/>
      <point x="50" y="389"/>
      <point x="50" y="247" type="curve" smooth="yes"/>
      <point x="50" y="105"/>
      <point x="159" y="-15"/>
      <point x="311" y="-15" type="curve" smooth="yes"/>
      <point x="463" y="-15"/>
      <point x="572" y="105"/>
      <point x="572" y="247" type="curve" smooth="yes"/>
      <point x="572" y="389"/>
      <point x="463" y="510"/>
      <point x="311" y="510" type="curve" smooth="yes"/>
    </contour>
    <contour>
      <point x="418" y="430"/>
      <point x="487" y="344"/>
      <point x="487" y="247" type="curve" smooth="yes"/>
      <point x="487" y="150"/>
      <point x="418" y="65"/>
      <point x="311" y="65" type="curve" smooth="yes"/>
      <point x="204" y="65"/>
      <point x="135" y="150"/>
      <point x="135" y="247" type="curve" smooth="yes"/>
      <point x="135" y="344"/>
      <point x="204" y="430"/>
      <point x="311" y="430" type="curve" smooth="yes"/>
    </contour>
    <contour>
      <point x="311" y="500" type="move" name="top"/>
    </contour>
  </outline>
</glyph>
<glyph name="q" format="1">
  <advance width="622"/>
  <unicode hex="0071"/>
  <outline>
    <contour>
      <point x="154" y="510"/>
      <point x="50" y="407"/>
      <point x="50" y="242" type="curve" smooth="yes"/>
      <point x="50" y="90"/>
      <point x="154" y="-15"/>
      <point x="283" y="-15" type="curve" smooth="yes"/>
      <point x="359" y="-15"/>
      <point x="420" y="32"/>
      <point x="455" y="85" type="curve"/>
      <point x="455" y="-240" type="line"/>
      <point x="537" y="-240" type="line"/>
      <point x="537" y="500" type="line"/>
      <point x="455" y="500" type="line"/>
      <point x="455" y="433" type="line"/>
      <point x="412" y="481"/>
      <point x="348" y="510"/>
      <point x="291" y="510" type="curve" smooth="yes"/>
    </contour>
    <contour>
      <point x="367" y="429"/>
      <point x="412" y="399"/>
      <point x="454" y="347" type="curve"/>
      <point x="455" y="251" type="line" smooth="yes"/>
      <point x="456" y="144"/>
      <point x="387" y="66"/>
      <point x="296" y="66" type="curve" smooth="yes"/>
      <point x="199" y="66"/>
      <point x="135" y="145"/>
      <point x="135" y="242" type="curve" smooth="yes"/>
      <point x="135" y="339"/>
      <point x="199" y="429"/>
      <point x="306" y="429" type="curve" smooth="yes"/>
    </contour>
  </outline>
</glyph>
<glyph name="r" format="1">
  <advance width="402"/>
  <unicode hex="0072"/>
  <outline>
    <contour>
      <point x="85" y="500" type="line"/>
      <point x="85" y="0" type="line"/>
      <point x="167" y="0" type="line"/>
      <point x="167" y="500" type="line"/>
    </contour>
    <contour>
      <point x="382" y="496" type="line"/>
      <point x="364" y="505"/>
      <point x="344" y="510"/>
      <point x="321" y="510" type="curve" smooth="yes"/>
      <point x="264" y="510"/>
      <point x="205" y="466"/>
      <point x="167" y="400" type="curve"/>
      <point x="167" y="302" type="line"/>
      <point x="204" y="369"/>
      <point x="241" y="424"/>
      <point x="309" y="424" type="curve" smooth="yes"/>
      <point x="335" y="424"/>
      <point x="361" y="414"/>
      <point x="382" y="398" type="curve"/>
    </contour>
    <contour>
      <point x="227" y="500" type="move" name="top"/>
    </contour>
    <contour>
      <point x="130" y="0" type="move" name="bottom"/>
    </contour>
  </outline>
</glyph>
<glyph name="s" format="1">
  <advance width="428"/>
  <unicode hex="0073"/>
  <outline>
    <contour>
      <point x="127" y="510"/>
      <point x="58" y="447"/>
      <point x="58" y="362" type="curve" smooth="yes"/>
      <point x="58" y="305"/>
      <point x="76" y="259"/>
      <point x="154" y="230" type="curve" smooth="yes"/>
      <point x="228" y="203" type="line" smooth="yes"/>
      <point x="275" y="186"/>
      <point x="300" y="170"/>
      <point x="300" y="138" type="curve" smooth="yes"/>
      <point x="300" y="96"/>
      <point x="261" y="65"/>
      <point x="198" y="65" type="curve" smooth="yes"/>
      <point x="148" y="65"/>
      <point x="78" y="96"/>
      <point x="50" y="117" type="curve"/>
      <point x="50" y="29" type="line"/>
      <point x="73" y="12"/>
      <point x="145" y="-15"/>
      <point x="204" y="-15" type="curve" smooth="yes"/>
      <point x="311" y="-15"/>
      <point x="388" y="53"/>
      <point x="388" y="138" type="curve" smooth="yes"/>
      <point x="388" y="195"/>
      <point x="356" y="239"/>
      <point x="291" y="262" type="curve" smooth="yes"/>
      <point x="207" y="292" type="line" smooth="yes"/>
      <point x="161" y="308"/>
      <point x="146" y="337"/>
      <point x="146" y="362" type="curve" smooth="yes"/>
      <point x="146" y="394"/>
      <point x="177" y="430"/>
      <point x="240" y="430" type="curve" smooth="yes"/>
      <point x="290" y="430"/>
      <point x="343" y="405"/>
      <point x="371" y="384" type="curve"/>
      <point x="371" y="472" type="line"/>
      <point x="348" y="489"/>
      <point x="293" y="510"/>
      <point x="234" y="510" type="curve" smooth="yes"/>
    </contour>
    <contour>
      <point x="232" y="500" type="move" name="top"/>
    </contour>
    <contour>
      <point x="206" y="0" type="move" name="bottom"/>
    </contour>
  </outline>
</glyph>
<glyph name="t" format="1">
  <advance width="433"/>
  <unicode hex="0074"/>
  <outline>
    <contour>
      <point x="185" y="644" type="line"/>
      <point x="152" y="545"/>
      <point x="110" y="476"/>
      <point x="45" y="447" type="curve"/>
      <point x="45" y="423" type="line"/>
      <point x="141" y="423" type="line"/>
      <point x="141" y="126" type="line" smooth="yes"/>
      <point x="141" y="41"/>
      <point x="185" y="-15"/>
      <point x="270" y="-15" type="curve" smooth="yes"/>
      <point x="320" y="-15"/>
      <point x="346" y="-1"/>
      <point x="373" y="20" type="curve"/>
      <point x="373" y="87" type="line"/>
      <point x="353" y="75"/>
      <point x="328" y="63"/>
      <point x="288" y="63" type="curve" smooth="yes"/>
      <point x="244" y="63"/>
      <point x="223" y="88"/>
      <point x="223" y="130" type="curve" smooth="yes"/>
      <point x="223" y="423" type="line"/>
      <point x="369" y="423" type="line"/>
      <point x="369" y="500" type="line"/>
      <point x="223" y="500" type="line"/>
      <point x="223" y="644" type="line"/>
    </contour>
    <contour>
      <point x="214" y="250" type="move" name="center"/>
    </contour>
    <contour>
      <point x="254" y="0" type="move" name="bottom"/>
    </contour>
    <contour>
      <point x="408" y="500" type="move" name="topright"/>
    </contour>
  </outline>
</glyph>
<glyph name="u" format="1">
  <advance width="564"/>
  <unicode hex="0075"/>
  <outline>
    <contour>
      <point x="409" y="500" type="line"/>
      <point x="409" y="204" type="line" smooth="yes"/>
      <point x="409" y="117"/>
      <point x="349" y="70"/>
      <point x="282" y="70" type="curve" smooth="yes"/>
      <point x="215" y="70"/>
      <point x="155" y="117"/>
      <point x="155" y="204" type="curve" smooth="yes"/>
      <point x="155" y="500" type="line"/>
      <point x="70" y="500" type="line"/>
      <point x="70" y="204" type="line" smooth="yes"/>
      <point x="70" y="72"/>
      <point x="162" y="-10"/>
      <point x="282" y="-10" type="curve" smooth="yes"/>
      <point x="402" y="-10"/>
      <point x="494" y="72"/>
      <point x="494" y="204" type="curve" smooth="yes"/>
      <point x="494" y="500" type="line"/>
    </contour>
    <contour>
      <point x="372" y="10" type="move" name="ogonek"/>
    </contour>
    <contour>
      <point x="287" y="500" type="move" name="top"/>
    </contour>
  </outline>
</glyph>
<glyph name="v" format="1">
  <advance width="541"/>
  <unicode hex="0076"/>
  <outline>
    <contour>
      <point x="526" y="500" type="line"/>
      <point x="428" y="500" type="line"/>
      <point x="264" y="132" type="line"/>
      <point x="113" y="500" type="line"/>
      <point x="15" y="500" type="line"/>
      <point x="240" y="0" type="line"/>
      <point x="291" y="0" type="line"/>
    </contour>
  </outline>
</glyph>
<glyph name="w" format="1">
  <advance width="756"/>
  <unicode hex="0077"/>
  <outline>
    <contour>
      <point x="643" y="500" type="line"/>
      <point x="532" y="149" type="line"/>
      <point x="401" y="500" type="line"/>
      <point x="355" y="500" type="line"/>
      <point x="224" y="149" type="line"/>
      <point x="113" y="500" type="line"/>
      <point x="15" y="500" type="line"/>
      <point x="190" y="0" type="line"/>
      <point x="241" y="0" type="line"/>
      <point x="378" y="353" type="line"/>
      <point x="515" y="0" type="line"/>
      <point x="566" y="0" type="line"/>
      <point x="741" y="500" type="line"/>
    </contour>
    <contour>
      <point x="379" y="500" type="move" name="top"/>
    </contour>
  </outline>
</glyph>
<glyph name="x" format="1">
  <advance width="553"/>
  <unicode hex="0078"/>
  <outline>
    <contour>
      <point x="535" y="500" type="line"/>
      <point x="429" y="500" type="line"/>
      <point x="277" y="320" type="line"/>
      <point x="124" y="500" type="line"/>
      <point x="18" y="500" type="line"/>
      <point x="225" y="260" type="line"/>
      <point x="15" y="0" type="line"/>
      <point x="121" y="0" type="line"/>
      <point x="277" y="207" type="line"/>
      <point x="432" y="0" type="line"/>
      <point x="538" y="0" type="line"/>
      <point x="328" y="260" type="line"/>
    </contour>
  </outline>
</glyph>
<glyph name="y" format="1">
  <advance width="571"/>
  <unicode hex="0079"/>
  <outline>
    <contour>
      <point x="556" y="500" type="line"/>
      <point x="458" y="500" type="line"/>
      <point x="272" y="97" type="line"/>
      <point x="93" y="-240" type="line"/>
      <point x="188" y="-240" type="line"/>
    </contour>
    <contour>
      <point x="113" y="500" type="line"/>
      <point x="15" y="500" type="line"/>
      <point x="239" y="24" type="line"/>
      <point x="311" y="84" type="line"/>
    </contour>
    <contour>
      <point x="285" y="500" type="move" name="top"/>
    </contour>
  </outline>
</glyph>
<glyph name="z" format="1">
  <advance width="549"/>
  <unicode hex="007A"/>
  <outline>
    <contour>
      <point x="484" y="500" type="line"/>
      <point x="75" y="500" type="line"/>
      <point x="75" y="423" type="line"/>
      <point x="346" y="423" type="line"/>
      <point x="55" y="27" type="line"/>
      <point x="55" y="0" type="line"/>
      <point x="494" y="0" type="line"/>
      <point x="494" y="77" type="line"/>
      <point x="183" y="77" type="line"/>
      <point x="484" y="473" type="line"/>
    </contour>
    <contour>
      <point x="275" y="500" type="move" name="top"/>
    </contour>
  </outline>
</glyph>
<glyph name="braceleft" format="1">
  <advance width="434"/>
  <unicode hex="007B"/>
  <outline>
    <contour>
      <point x="330" y="690" type="line" smooth="yes"/>
      <point x="225" y="690"/>
      <point x="155" y="609"/>
      <point x="155" y="508" type="curve" smooth="yes"/>
      <point x="155" y="372" type="line" smooth="yes"/>
      <point x="155" y="312"/>
      <point x="143" y="290"/>
      <point x="80" y="290" type="curve"/>
      <point x="80" y="200" type="line"/>
      <point x="143" y="200"/>
      <point x="155" y="178"/>
      <point x="155" y="118" type="curve" smooth="yes"/>
      <point x="155" y="-18" type="line" smooth="yes"/>
      <point x="155" y="-119"/>
      <point x="225" y="-200"/>
      <point x="330" y="-200" type="curve" smooth="yes"/>
      <point x="394" y="-200" type="line"/>
      <point x="394" y="-110" type="line"/>
      <point x="350" y="-110" type="line" smooth="yes"/>
      <point x="264" y="-110"/>
      <point x="252" y="-59"/>
      <point x="252" y="45" type="curve" smooth="yes"/>
      <point x="252" y="150" type="line" smooth="yes"/>
      <point x="252" y="192"/>
      <point x="225" y="225"/>
      <point x="187" y="245" type="curve"/>
      <point x="225" y="265"/>
      <point x="252" y="298"/>
      <point x="252" y="340" type="curve" smooth="yes"/>
      <point x="252" y="445" type="line" smooth="yes"/>
      <point x="252" y="549"/>
      <point x="264" y="600"/>
      <point x="350" y="600" type="curve" smooth="yes"/>
      <point x="394" y="600" type="line"/>
      <point x="394" y="690" type="line"/>
    </contour>
  </outline>
</glyph>
<glyph name="bar" format="1">
  <advance width="230"/>
  <unicode hex="007C"/>
  <outline>
    <contour>
      <point x="80" y="705" type="line"/>
      <point x="80" y="-200" type="line"/>
      <point x="150" y="-200" type="line"/>
      <point x="150" y="705" type="line"/>
    </contour>
  </outline>
</glyph>
<glyph name="asciitilde" format="1">
  <advance width="524"/>
  <unicode hex="007E"/>
  <outline>
    <contour>
      <point x="382" y="416" type="line"/>
      <point x="382" y="386"/>
      <point x="367" y="360"/>
      <point x="338" y="360" type="curve" smooth="yes"/>
      <point x="288" y="360"/>
      <point x="274" y="422"/>
      <point x="186" y="422" type="curve" smooth="yes"/>
      <point x="113" y="422"/>
      <point x="60" y="367"/>
      <point x="60" y="297" type="curve"/>
      <point x="142" y="297" type="line"/>
      <point x="142" y="327"/>
      <point x="158" y="353"/>
      <point x="186" y="353" type="curve" smooth="yes"/>
      <point x="236" y="353"/>
      <point x="250" y="291"/>
      <point x="338" y="291" type="curve" smooth="yes"/>
      <point x="411" y="291"/>
      <point x="464" y="346"/>
      <point x="464" y="416" type="curve"/>
    </contour>
  </outline>
</glyph>
<glyph name="cent" format="1">
  <advance width="511"/>
  <unicode hex="00A2"/>
  <outline>
    <contour>
      <point x="253" y="580" type="line"/>
      <point x="253" y="-80" type="line"/>
      <point x="325" y="-80" type="line"/>
      <point x="325" y="580" type="line"/>
    </contour>
    <component base="c"/>
  </outline>
</glyph>
<glyph name="sterling" format="1">
  <advance width="513"/>
  <unicode hex="00A3"/>
  <outline>
    <contour>
      <point x="270" y="680"/>
      <point x="171" y="606"/>
      <point x="171" y="459" type="curve" smooth="yes"/>
      <point x="171" y="263" type="line" smooth="yes"/>
      <point x="171" y="189"/>
      <point x="148" y="90"/>
      <point x="90" y="70" type="curve"/>
      <point x="90" y="0" type="line"/>
      <point x="481" y="0" type="line"/>
      <point x="481" y="90" type="line"/>
      <point x="192" y="90" type="line"/>
      <point x="229" y="128"/>
      <point x="253" y="189"/>
      <point x="253" y="263" type="curve" smooth="yes"/>
      <point x="253" y="450" type="line" smooth="yes"/>
      <point x="253" y="554"/>
      <point x="312" y="601"/>
      <point x="371" y="602" type="curve" smooth="yes"/>
      <point x="419" y="603"/>
      <point x="469" y="579"/>
      <point x="499" y="553" type="curve"/>
      <point x="499" y="633" type="line"/>
      <point x="477" y="656"/>
      <point x="430" y="680"/>
      <point x="376" y="680" type="curve" smooth="yes"/>
    </contour>
    <contour>
      <point x="92" y="378" type="line"/>
      <point x="92" y="298" type="line"/>
      <point x="409" y="298" type="line"/>
      <point x="409" y="378" type="line"/>
    </contour>
  </outline>
</glyph>
<glyph name="currency" format="1">
  <advance width="542"/>
  <unicode hex="00A4"/>
  <outline>
    <contour>
      <point x="271" y="436" type="curve" smooth="yes"/>
      <point x="174" y="436"/>
      <point x="80" y="359"/>
      <point x="80" y="252" type="curve" smooth="yes"/>
      <point x="80" y="145"/>
      <point x="174" y="68"/>
      <point x="271" y="68" type="curve" smooth="yes"/>
      <point x="368" y="68"/>
      <point x="462" y="145"/>
      <point x="462" y="252" type="curve" smooth="yes"/>
      <point x="462" y="359"/>
      <point x="368" y="436"/>
    </contour>
    <contour>
      <point x="271" y="362" type="curve" smooth="yes"/>
      <point x="333" y="362"/>
      <point x="386" y="321"/>
      <point x="386" y="252" type="curve" smooth="yes"/>
      <point x="386" y="183"/>
      <point x="333" y="142"/>
      <point x="271" y="142" type="curve" smooth="yes"/>
      <point x="209" y="142"/>
      <point x="156" y="183"/>
      <point x="156" y="252" type="curve" smooth="yes"/>
      <point x="156" y="321"/>
      <point x="209" y="362"/>
    </contour>
    <contour>
      <point x="404" y="170" type="line"/>
      <point x="337" y="135" type="line"/>
      <point x="438" y="34" type="line"/>
      <point x="492" y="85" type="line"/>
    </contour>
    <contour>
      <point x="147" y="325" type="line"/>
      <point x="199" y="375" type="line"/>
      <point x="101" y="470" type="line"/>
      <point x="53" y="419" type="line"/>
    </contour>
    <contour>
      <point x="345" y="377" type="line"/>
      <point x="393" y="323" type="line"/>
      <point x="489" y="419" type="line"/>
      <point x="441" y="470" type="line"/>
    </contour>
    <contour>
      <point x="187" y="117" type="line"/>
      <point x="135" y="167" type="line"/>
      <point x="50" y="85" type="line"/>
      <point x="104" y="34" type="line"/>
    </contour>
  </outline>
</glyph>
<glyph name="yen" format="1">
  <advance width="631"/>
  <unicode hex="00A5"/>
  <outline>
    <contour>
      <point x="105" y="338" type="line"/>
      <point x="105" y="268" type="line"/>
      <point x="527" y="268" type="line"/>
      <point x="527" y="338" type="line"/>
    </contour>
    <contour>
      <point x="105" y="213" type="line"/>
      <point x="105" y="143" type="line"/>
      <point x="527" y="143" type="line"/>
      <point x="527" y="213" type="line"/>
    </contour>
    <component base="Y"/>
  </outline>
</glyph>
<glyph name="brokenbar" format="1">
  <advance width="230"/>
  <unicode hex="00A6"/>
  <outline>
    <contour>
      <point x="150" y="705" type="line"/>
      <point x="80" y="705" type="line"/>
      <point x="80" y="289" type="line"/>
      <point x="150" y="289" type="line"/>
    </contour>
    <contour>
      <point x="150" y="216" type="line"/>
      <point x="80" y="216" type="line"/>
      <point x="80" y="-200" type="line"/>
      <point x="150" y="-200" type="line"/>
    </contour>
  </outline>
</glyph>
<glyph name="section" format="1">
  <advance width="523"/>
  <unicode hex="00A7"/>
  <outline>
    <contour>
      <point x="132" y="398" type="line"/>
      <point x="82" y="363"/>
      <point x="50" y="312"/>
      <point x="50" y="252" type="curve" smooth="yes"/>
      <point x="50" y="177"/>
      <point x="78" y="121"/>
      <point x="174" y="78" type="curve" smooth="yes"/>
      <point x="285" y="28" type="line" smooth="yes"/>
      <point x="326" y="10"/>
      <point x="381" y="-18"/>
      <point x="381" y="-68" type="curve" smooth="yes"/>
      <point x="381" y="-127"/>
      <point x="322" y="-162"/>
      <point x="255" y="-162" type="curve" smooth="yes"/>
      <point x="170" y="-162"/>
      <point x="103" y="-128"/>
      <point x="51" y="-92" type="curve"/>
      <point x="51" y="-185" type="line"/>
      <point x="99" y="-219"/>
      <point x="166" y="-250"/>
      <point x="243" y="-250" type="curve" smooth="yes"/>
      <point x="366" y="-250"/>
      <point x="473" y="-173"/>
      <point x="473" y="-64" type="curve" smooth="yes"/>
      <point x="473" y="20"/>
      <point x="426" y="64"/>
      <point x="334" y="106" type="curve" smooth="yes"/>
      <point x="242" y="148" type="line" smooth="yes"/>
      <point x="187" y="173"/>
      <point x="143" y="195"/>
      <point x="143" y="249" type="curve" smooth="yes"/>
      <point x="143" y="294"/>
      <point x="174" y="323"/>
      <point x="211" y="338" type="curve"/>
    </contour>
    <contour>
      <point x="378" y="25" type="line"/>
      <point x="435" y="58"/>
      <point x="473" y="111"/>
      <point x="473" y="176" type="curve" smooth="yes"/>
      <point x="473" y="260"/>
      <point x="426" y="304"/>
      <point x="334" y="346" type="curve" smooth="yes"/>
      <point x="242" y="388" type="line" smooth="yes"/>
      <point x="187" y="413"/>
      <point x="143" y="435"/>
      <point x="143" y="489" type="curve" smooth="yes"/>
      <point x="143" y="561"/>
      <point x="221" y="592"/>
      <point x="282" y="592" type="curve" smooth="yes"/>
      <point x="344" y="592"/>
      <point x="399" y="562"/>
      <point x="437" y="534" type="curve"/>
      <point x="437" y="627" type="line"/>
      <point x="398" y="652"/>
      <point x="351" y="680"/>
      <point x="272" y="680" type="curve" smooth="yes"/>
      <point x="153" y="680"/>
      <point x="50" y="598"/>
      <point x="50" y="492" type="curve" smooth="yes"/>
      <point x="50" y="417"/>
      <point x="78" y="361"/>
      <point x="174" y="318" type="curve" smooth="yes"/>
      <point x="285" y="268" type="line" smooth="yes"/>
      <point x="326" y="250"/>
      <point x="381" y="222"/>
      <point x="381" y="172" type="curve" smooth="yes"/>
      <point x="381" y="125"/>
      <point x="344" y="94"/>
      <point x="296" y="83" type="curve"/>
    </contour>
  </outline>
</glyph>
<glyph name="ordfeminine" format="1">
  <advance width="391"/>
  <unicode hex="00AA"/>
  <outline>
    <contour>
      <point x="194" y="676" type="curve" smooth="yes"/>
      <point x="105" y="676"/>
      <point x="40" y="615"/>
      <point x="40" y="517" type="curve" smooth="yes"/>
      <point x="40" y="426"/>
      <point x="101" y="364"/>
      <point x="189" y="364" type="curve" smooth="yes"/>
      <point x="234" y="364"/>
      <point x="271" y="392"/>
      <point x="291" y="423" type="curve"/>
      <point x="291" y="373" type="line"/>
      <point x="351" y="373" type="line"/>
      <point x="351" y="670" type="line"/>
      <point x="291" y="670" type="line"/>
      <point x="291" y="631" type="line"/>
      <point x="265" y="659"/>
      <point x="228" y="676"/>
    </contour>
    <contour>
      <point x="202" y="618" type="curve" smooth="yes"/>
      <point x="239" y="618"/>
      <point x="265" y="610"/>
      <point x="291" y="580" type="curve"/>
      <point x="291" y="522" type="line" smooth="yes"/>
      <point x="292" y="459"/>
      <point x="251" y="421"/>
      <point x="196" y="421" type="curve" smooth="yes"/>
      <point x="139" y="421"/>
      <point x="101" y="459"/>
      <point x="101" y="517" type="curve" smooth="yes"/>
      <point x="101" y="574"/>
      <point x="139" y="618"/>
    </contour>
    <contour>
      <point x="546" y="10" type="move" name="ogonek"/>
    </contour>
    <contour>
      <point x="317" y="500" type="move" name="top"/>
    </contour>
  </outline>
</glyph>
<glyph name="logicalnot" format="1">
  <advance width="600"/>
  <unicode hex="00AC"/>
  <outline>
    <contour>
      <point x="471" y="358" type="line"/>
      <point x="80" y="358" type="line"/>
      <point x="80" y="268" type="line"/>
      <point x="471" y="268" type="line"/>
    </contour>
    <contour>
      <point x="471" y="358" type="line"/>
      <point x="384" y="358" type="line"/>
      <point x="384" y="130" type="line"/>
      <point x="471" y="130" type="line"/>
    </contour>
  </outline>
</glyph>
<glyph name="registered" format="1">
  <advance width="884"/>
  <unicode hex="00AE"/>
  <outline>
    <contour>
      <point x="442" y="723" type="curve" smooth="yes"/>
      <point x="218" y="723"/>
      <point x="50" y="548"/>
      <point x="50" y="335" type="curve" smooth="yes"/>
      <point x="50" y="122"/>
      <point x="218" y="-53"/>
      <point x="442" y="-53" type="curve" smooth="yes"/>
      <point x="666" y="-53"/>
      <point x="834" y="122"/>
      <point x="834" y="335" type="curve" smooth="yes"/>
      <point x="834" y="548"/>
      <point x="666" y="723"/>
    </contour>
    <contour>
      <point x="442" y="649" type="curve" smooth="yes"/>
      <point x="627" y="649"/>
      <point x="751" y="520"/>
      <point x="751" y="335" type="curve" smooth="yes"/>
      <point x="751" y="150"/>
      <point x="627" y="21"/>
      <point x="442" y="21" type="curve" smooth="yes"/>
      <point x="257" y="21"/>
      <point x="133" y="150"/>
      <point x="133" y="335" type="curve" smooth="yes"/>
      <point x="133" y="520"/>
      <point x="257" y="649"/>
    </contour>
    <component base="R" xScale="0.593" yScale="0.593" xOffset="253" yOffset="136"/>
  </outline>
</glyph>
<glyph name="macron" format="1">
  <advance width="530"/>
  <unicode hex="00AF"/>
  <outline>
    <contour>
      <point x="440" y="718" type="line"/>
      <point x="90" y="718" type="line"/>
      <point x="90" y="638" type="line"/>
      <point x="440" y="638" type="line"/>
    </contour>
    <contour>
      <point x="265" y="500" type="move" name="_top"/>
    </contour>
  </outline>
</glyph>
<glyph name="degree" format="1">
  <advance width="443"/>
  <unicode hex="00B0"/>
  <outline>
    <contour>
      <point x="122" y="685"/>
      <point x="50" y="606"/>
      <point x="50" y="513" type="curve" smooth="yes"/>
      <point x="50" y="418"/>
      <point x="122" y="340"/>
      <point x="222" y="340" type="curve" smooth="yes"/>
      <point x="322" y="340"/>
      <point x="393" y="418"/>
      <point x="393" y="513" type="curve" smooth="yes"/>
      <point x="393" y="606"/>
      <point x="322" y="685"/>
      <point x="222" y="685" type="curve" smooth="yes"/>
    </contour>
    <contour>
      <point x="274" y="608"/>
      <point x="315" y="563"/>
      <point x="315" y="513" type="curve" smooth="yes"/>
      <point x="315" y="460"/>
      <point x="274" y="416"/>
      <point x="222" y="416" type="curve" smooth="yes"/>
      <point x="169" y="416"/>
      <point x="128" y="460"/>
      <point x="128" y="513" type="curve" smooth="yes"/>
      <point x="128" y="563"/>
      <point x="169" y="608"/>
      <point x="222" y="608" type="curve" smooth="yes"/>
    </contour>
  </outline>
</glyph>
<glyph name="plusminus" format="1">
  <advance width="531"/>
  <unicode hex="00B1"/>
  <outline>
    <contour>
      <point x="310" y="498" type="line"/>
      <point x="220" y="498" type="line"/>
      <point x="220" y="167" type="line"/>
      <point x="310" y="167" type="line"/>
    </contour>
    <contour>
      <point x="450" y="378" type="line"/>
      <point x="80" y="378" type="line"/>
      <point x="80" y="288" type="line"/>
      <point x="450" y="288" type="line"/>
    </contour>
    <contour>
      <point x="451" y="90" type="line"/>
      <point x="80" y="90" type="line"/>
      <point x="80" y="0" type="line"/>
      <point x="451" y="0" type="line"/>
    </contour>
  </outline>
</glyph>
<glyph name="uni00B2" format="1">
  <advance width="278"/>
  <unicode hex="00B2"/>
  <outline>
    <contour>
      <point x="137" y="679" type="curve" smooth="yes"/>
      <point x="92" y="679"/>
      <point x="65" y="663"/>
      <point x="49" y="648" type="curve"/>
      <point x="49" y="586" type="line"/>
      <point x="66" y="602"/>
      <point x="93" y="620"/>
      <point x="123" y="620" type="curve" smooth="yes"/>
      <point x="159" y="620"/>
      <point x="176" y="606"/>
      <point x="176" y="579" type="curve" smooth="yes"/>
      <point x="176" y="545"/>
      <point x="131" y="501"/>
      <point x="40" y="399" type="curve"/>
      <point x="40" y="373" type="line"/>
      <point x="238" y="373" type="line"/>
      <point x="238" y="430" type="line"/>
      <point x="140" y="430" type="line"/>
      <point x="208" y="510"/>
      <point x="236" y="532"/>
      <point x="236" y="591" type="curve" smooth="yes"/>
      <point x="236" y="645"/>
      <point x="191" y="679"/>
    </contour>
  </outline>
</glyph>
<glyph name="paragraph" format="1">
  <advance width="663"/>
  <unicode hex="00B6"/>
  <outline>
    <contour>
      <point x="553" y="670" type="line"/>
      <point x="276" y="670" type="line" smooth="yes"/>
      <point x="164" y="670"/>
      <point x="50" y="619"/>
      <point x="50" y="481" type="curve" smooth="yes"/>
      <point x="50" y="346"/>
      <point x="164" y="292"/>
      <point x="276" y="292" type="curve" smooth="yes"/>
      <point x="326" y="292" type="line"/>
      <point x="326" y="-210" type="line"/>
      <point x="381" y="-210" type="line"/>
      <point x="381" y="614" type="line"/>
      <point x="501" y="614" type="line"/>
      <point x="501" y="-210" type="line"/>
      <point x="553" y="-210" type="line"/>
    </contour>
  </outline>
</glyph>
<glyph name="cedilla" format="1">
  <advance width="353"/>
  <unicode hex="00B8"/>
  <outline>
    <contour>
      <point x="129" y="2" type="line"/>
      <point x="115" y="-118" type="line"/>
      <point x="131" y="-130" type="line"/>
      <point x="144" y="-123"/>
      <point x="156" y="-121"/>
      <point x="166" y="-121" type="curve" smooth="yes"/>
      <point x="191" y="-121"/>
      <point x="205" y="-132"/>
      <point x="205" y="-150" type="curve" smooth="yes"/>
      <point x="205" y="-168"/>
      <point x="189" y="-181"/>
      <point x="166" y="-181" type="curve" smooth="yes"/>
      <point x="137" y="-181"/>
      <point x="113" y="-171"/>
      <point x="92" y="-160" type="curve"/>
      <point x="85" y="-215" type="line"/>
      <point x="106" y="-232"/>
      <point x="143" y="-240"/>
      <point x="163" y="-240" type="curve" smooth="yes"/>
      <point x="232" y="-240"/>
      <point x="273" y="-200"/>
      <point x="273" y="-147" type="curve" smooth="yes"/>
      <point x="273" y="-98"/>
      <point x="232" y="-63"/>
      <point x="177" y="-70" type="curve"/>
      <point x="183" y="2" type="line"/>
    </contour>
    <contour>
      <point x="157" y="0" type="move" name="_bottom"/>
    </contour>
  </outline>
</glyph>
<glyph name="ordmasculine" format="1">
  <advance width="390"/>
  <unicode hex="00BA"/>
  <outline>
    <contour>
      <point x="195" y="676" type="curve" smooth="yes"/>
      <point x="105" y="676"/>
      <point x="40" y="604"/>
      <point x="40" y="520" type="curve" smooth="yes"/>
      <point x="40" y="436"/>
      <point x="105" y="365"/>
      <point x="195" y="365" type="curve" smooth="yes"/>
      <point x="285" y="365"/>
      <point x="350" y="436"/>
      <point x="350" y="520" type="curve" smooth="yes"/>
      <point x="350" y="604"/>
      <point x="285" y="676"/>
    </contour>
    <contour>
      <point x="195" y="619" type="curve" smooth="yes"/>
      <point x="250" y="619"/>
      <point x="289" y="578"/>
      <point x="289" y="520" type="curve" smooth="yes"/>
      <point x="289" y="463"/>
      <point x="250" y="422"/>
      <point x="195" y="422" type="curve" smooth="yes"/>
      <point x="139" y="422"/>
      <point x="100" y="463"/>
      <point x="100" y="520" type="curve" smooth="yes"/>
      <point x="100" y="578"/>
      <point x="139" y="619"/>
    </contour>
    <contour>
      <point x="301" y="500" type="move" name="top"/>
    </contour>
  </outline>
</glyph>
<glyph name="guillemotright" format="1">
  <advance width="655"/>
  <unicode hex="00BB"/>
  <outline>
    <contour>
      <point x="340" y="468" type="line"/>
      <point x="340" y="363" type="line"/>
      <point x="480" y="254" type="line"/>
      <point x="340" y="137" type="line"/>
      <point x="340" y="32" type="line"/>
      <point x="575" y="235" type="line"/>
      <point x="575" y="273" type="line"/>
    </contour>
    <contour>
      <point x="100" y="468" type="line"/>
      <point x="100" y="363" type="line"/>
      <point x="240" y="254" type="line"/>
      <point x="100" y="137" type="line"/>
      <point x="100" y="32" type="line"/>
      <point x="335" y="235" type="line"/>
      <point x="335" y="273" type="line"/>
    </contour>
  </outline>
</glyph>
<glyph name="AE" format="1">
  <advance width="1072"/>
  <unicode hex="00C6"/>
  <outline>
    <contour>
      <point x="554" y="670" type="line"/>
      <point x="503" y="670" type="line"/>
      <point x="10" y="0" type="line"/>
      <point x="128" y="0" type="line"/>
      <point x="532" y="568" type="line"/>
    </contour>
    <contour>
      <point x="568" y="270" type="line"/>
      <point x="247" y="270" type="line"/>
      <point x="247" y="193" type="line"/>
      <point x="568" y="193" type="line"/>
    </contour>
    <component base="E" xOffset="433"/>
    <contour>
      <point x="334" y="10" type="move" name="ogonek"/>
    </contour>
    <contour>
      <point x="63" y="670" type="move" name="top"/>
    </contour>
  </outline>
</glyph>
<glyph name="multiply" format="1">
  <advance width="500"/>
  <unicode hex="00D7"/>
  <outline>
    <contour>
      <point x="80" y="206" type="line"/>
      <point x="144" y="142" type="line"/>
      <point x="420" y="419" type="line"/>
      <point x="356" y="483" type="line"/>
    </contour>
    <contour>
      <point x="81" y="419" type="line"/>
      <point x="356" y="143" type="line"/>
      <point x="420" y="207" type="line"/>
      <point x="144" y="483" type="line"/>
    </contour>
  </outline>
</glyph>
<glyph name="Oslash" format="1">
  <advance width="806"/>
  <unicode hex="00D8"/>
  <outline>
    <contour>
      <point x="650" y="685" type="line"/>
      <point x="125" y="25" type="line"/>
      <point x="174" y="-15" type="line"/>
      <point x="702" y="645" type="line"/>
    </contour>
    <component base="O"/>
  </outline>
</glyph>
<glyph name="germandbls" format="1">
  <advance width="648"/>
  <unicode hex="00DF"/>
  <outline>
    <contour>
      <point x="179" y="725"/>
      <point x="85" y="677"/>
      <point x="85" y="544" type="curve" smooth="yes"/>
      <point x="85" y="0" type="line"/>
      <point x="167" y="0" type="line"/>
      <point x="167" y="535" type="line" smooth="yes"/>
      <point x="167" y="625"/>
      <point x="220" y="646"/>
      <point x="269" y="647" type="curve" smooth="yes"/>
      <point x="317" y="648"/>
      <point x="369" y="611"/>
      <point x="369" y="556" type="curve" smooth="yes"/>
      <point x="369" y="489"/>
      <point x="282" y="448"/>
      <point x="282" y="360" type="curve" smooth="yes"/>
      <point x="282" y="303"/>
      <point x="320" y="263"/>
      <point x="375" y="240" type="curve" smooth="yes"/>
      <point x="446" y="211" type="line" smooth="yes"/>
      <point x="460" y="205"/>
      <point x="527" y="173"/>
      <point x="527" y="136" type="curve" smooth="yes"/>
      <point x="527" y="94"/>
      <point x="483" y="70"/>
      <point x="429" y="70" type="curve" smooth="yes"/>
      <point x="366" y="70"/>
      <point x="319" y="92"/>
      <point x="281" y="122" type="curve"/>
      <point x="281" y="35" type="line"/>
      <point x="316" y="10"/>
      <point x="366" y="-10"/>
      <point x="429" y="-10" type="curve" smooth="yes"/>
      <point x="520" y="-10"/>
      <point x="608" y="40"/>
      <point x="608" y="135" type="curve" smooth="yes"/>
      <point x="608" y="191"/>
      <point x="569" y="234"/>
      <point x="506" y="266" type="curve" smooth="yes"/>
      <point x="449" y="295" type="line" smooth="yes"/>
      <point x="412" y="314"/>
      <point x="363" y="329"/>
      <point x="363" y="369" type="curve" smooth="yes"/>
      <point x="363" y="431"/>
      <point x="450" y="448"/>
      <point x="450" y="552" type="curve" smooth="yes"/>
      <point x="450" y="670"/>
      <point x="356" y="725"/>
      <point x="264" y="725" type="curve" smooth="yes"/>
    </contour>
  </outline>
</glyph>
<glyph name="ae" format="1">
  <advance width="987"/>
  <unicode hex="00E6"/>
  <outline>
    <component base="e" xOffset="416"/>
    <component base="a"/>
    <contour>
      <point x="536" y="10" type="move" name="ogonek"/>
    </contour>
    <contour>
      <point x="307" y="500" type="move" name="top"/>
    </contour>
  </outline>
</glyph>
<glyph name="eth" format="1">
  <advance width="617"/>
  <unicode hex="00F0"/>
  <outline>
    <contour>
      <point x="293" y="659" type="line"/>
      <point x="366" y="605"/>
      <point x="452" y="511"/>
      <point x="483" y="416" type="curve"/>
      <point x="429" y="481"/>
      <point x="372" y="510"/>
      <point x="311" y="510" type="curve" smooth="yes"/>
      <point x="159" y="510"/>
      <point x="50" y="389"/>
      <point x="50" y="247" type="curve" smooth="yes"/>
      <point x="50" y="105"/>
      <point x="159" y="-15"/>
      <point x="311" y="-15" type="curve" smooth="yes"/>
      <point x="463" y="-15"/>
      <point x="567" y="115"/>
      <point x="567" y="276" type="curve" smooth="yes"/>
      <point x="567" y="439"/>
      <point x="493" y="584"/>
      <point x="333" y="710" type="curve"/>
    </contour>
    <contour>
      <point x="418" y="430"/>
      <point x="487" y="344"/>
      <point x="487" y="247" type="curve" smooth="yes"/>
      <point x="487" y="150"/>
      <point x="418" y="65"/>
      <point x="311" y="65" type="curve" smooth="yes"/>
      <point x="204" y="65"/>
      <point x="135" y="150"/>
      <point x="135" y="247" type="curve" smooth="yes"/>
      <point x="135" y="344"/>
      <point x="204" y="430"/>
      <point x="311" y="430" type="curve" smooth="yes"/>
    </contour>
    <contour>
      <point x="271" y="580" type="line"/>
      <point x="292" y="526" type="line"/>
      <point x="531" y="628" type="line"/>
      <point x="510" y="682" type="line"/>
    </contour>
  </outline>
</glyph>
<glyph name="divide" format="1">
  <advance width="551"/>
  <unicode hex="00F7"/>
  <outline>
    <contour>
      <point x="80" y="358" type="line"/>
      <point x="80" y="268" type="line"/>
      <point x="471" y="268" type="line"/>
      <point x="471" y="358" type="line"/>
    </contour>
    <contour>
      <point x="241" y="193"/>
      <point x="213" y="165"/>
      <point x="213" y="130" type="curve" smooth="yes"/>
      <point x="213" y="96"/>
      <point x="241" y="67"/>
      <point x="276" y="67" type="curve" smooth="yes"/>
      <point x="310" y="67"/>
      <point x="339" y="96"/>
      <point x="339" y="130" type="curve" smooth="yes"/>
      <point x="339" y="165"/>
      <point x="310" y="193"/>
      <point x="276" y="193" type="curve" smooth="yes"/>
    </contour>
    <contour>
      <point x="241" y="557"/>
      <point x="213" y="529"/>
      <point x="213" y="494" type="curve" smooth="yes"/>
      <point x="213" y="460"/>
      <point x="241" y="431"/>
      <point x="276" y="431" type="curve" smooth="yes"/>
      <point x="310" y="431"/>
      <point x="339" y="460"/>
      <point x="339" y="494" type="curve" smooth="yes"/>
      <point x="339" y="529"/>
      <point x="310" y="557"/>
      <point x="276" y="557" type="curve" smooth="yes"/>
    </contour>
  </outline>
</glyph>
<glyph name="oslash" format="1">
  <advance width="612"/>
  <unicode hex="00F8"/>
  <outline>
    <contour>
      <point x="47" y="25" type="line"/>
      <point x="96" y="-15" type="line"/>
      <point x="555" y="470" type="line"/>
      <point x="503" y="510" type="line"/>
    </contour>
    <component base="o"/>
  </outline>
</glyph>
<glyph name="thorn" format="1">
  <advance width="622"/>
  <unicode hex="00FE"/>
  <outline>
    <contour>
      <point x="85" y="-240" type="line"/>
      <point x="167" y="-240" type="line"/>
      <point x="167" y="67" type="line"/>
      <point x="210" y="19"/>
      <point x="274" y="-10"/>
      <point x="331" y="-10" type="curve" smooth="yes"/>
      <point x="468" y="-10"/>
      <point x="572" y="93"/>
      <point x="572" y="258" type="curve" smooth="yes"/>
      <point x="572" y="410"/>
      <point x="468" y="510"/>
      <point x="339" y="510" type="curve" smooth="yes"/>
      <point x="263" y="510"/>
      <point x="202" y="468"/>
      <point x="167" y="415" type="curve"/>
      <point x="167" y="720" type="line"/>
      <point x="85" y="720" type="line"/>
    </contour>
    <contour>
      <point x="423" y="429"/>
      <point x="487" y="355"/>
      <point x="487" y="258" type="curve" smooth="yes"/>
      <point x="487" y="161"/>
      <point x="423" y="71"/>
      <point x="316" y="71" type="curve" smooth="yes"/>
      <point x="255" y="71"/>
      <point x="210" y="101"/>
      <point x="168" y="153" type="curve"/>
      <point x="167" y="249" type="line" smooth="yes"/>
      <point x="166" y="356"/>
      <point x="235" y="429"/>
      <point x="326" y="429" type="curve" smooth="yes"/>
    </contour>
  </outline>
</glyph>
<glyph name="dcroat" format="1">
  <advance width="612"/>
  <unicode hex="0111"/>
  <outline>
    <contour>
      <point x="608" y="639" type="line"/>
      <point x="308" y="639" type="line"/>
      <point x="308" y="559" type="line"/>
      <point x="608" y="559" type="line"/>
    </contour>
    <component base="d"/>
  </outline>
</glyph>
<glyph name="dotlessi" format="1">
  <advance width="301"/>
  <unicode hex="0131"/>
  <outline>
    <contour>
      <point x="216" y="500" type="line"/>
      <point x="134" y="500" type="line"/>
      <point x="134" y="0" type="line"/>
      <point x="216" y="0" type="line"/>
    </contour>
    <contour>
      <point x="216" y="500" type="line"/>
      <point x="55" y="500" type="line"/>
      <point x="55" y="423" type="line"/>
      <point x="216" y="423" type="line"/>
    </contour>
    <contour>
      <point x="216" y="0" type="move" name="ogonek"/>
    </contour>
    <contour>
      <point x="175" y="500" type="move" name="top"/>
    </contour>
  </outline>
</glyph>
<glyph name="Lcaron" format="1">
  <advance width="581"/>
  <unicode hex="013D"/>
  <outline>
    <contour>
      <point x="265" y="530" type="line"/>
      <point x="332" y="530" type="line"/>
      <point x="362" y="718" type="line"/>
      <point x="275" y="718" type="line"/>
    </contour>
    <component base="L"/>
  </outline>
</glyph>
<glyph name="lcaron" format="1">
  <advance width="372"/>
  <unicode hex="013E"/>
  <outline>
    <contour>
      <point x="255" y="530" type="line"/>
      <point x="322" y="530" type="line"/>
      <point x="352" y="718" type="line"/>
      <point x="265" y="718" type="line"/>
    </contour>
    <component base="l"/>
  </outline>
</glyph>
<glyph name="Lslash" format="1">
  <advance width="614"/>
  <unicode hex="0141"/>
  <outline>
    <contour>
      <point x="291" y="517" type="line"/>
      <point x="10" y="309" type="line"/>
      <point x="10" y="233" type="line"/>
      <point x="291" y="441" type="line"/>
    </contour>
    <component base="L"/>
  </outline>
</glyph>
<glyph name="lslash" format="1">
  <advance width="301"/>
  <unicode hex="0142"/>
  <outline>
    <contour>
      <point x="10" y="309" type="line"/>
      <point x="10" y="233" type="line"/>
      <point x="291" y="441" type="line"/>
      <point x="291" y="517" type="line"/>
    </contour>
    <component base="l" xOffset="15"/>
  </outline>
</glyph>
<glyph name="Eng" format="1">
  <advance width="761"/>
  <unicode hex="014A"/>
  <outline>
    <contour>
      <point x="646" y="135" type="line"/>
      <point x="146" y="670" type="line"/>
      <point x="110" y="670" type="line"/>
      <point x="110" y="0" type="line"/>
      <point x="207" y="0" type="line"/>
      <point x="207" y="469" type="line"/>
      <point x="613" y="35" type="line"/>
    </contour>
    <component base="J" xOffset="446"/>
    <contour>
      <point x="396" y="670" type="move" name="top"/>
    </contour>
    <contour>
      <point x="396" y="0" type="move" name="bottom"/>
    </contour>
  </outline>
</glyph>
<glyph name="eng" format="1">
  <advance width="585"/>
  <unicode hex="014B"/>
  <outline>
    <contour>
      <point x="433" y="88" type="line"/>
      <point x="433" y="-5" type="line" smooth="yes"/>
      <point x="433" y="-87"/>
      <point x="394" y="-139"/>
      <point x="306" y="-181" type="curve"/>
      <point x="343" y="-255" type="line"/>
      <point x="448" y="-212"/>
      <point x="515" y="-128"/>
      <point x="515" y="-13" type="curve" smooth="yes"/>
      <point x="515" y="88" type="line"/>
    </contour>
    <component base="n"/>
  </outline>
</glyph>
<glyph name="OE" format="1">
  <advance width="1028"/>
  <unicode hex="0152"/>
  <outline>
    <contour>
      <point x="496" y="670" type="line"/>
      <point x="403" y="670" type="line" smooth="yes"/>
      <point x="211" y="670"/>
      <point x="50" y="527"/>
      <point x="50" y="335" type="curve" smooth="yes"/>
      <point x="50" y="143"/>
      <point x="211" y="0"/>
      <point x="403" y="0" type="curve" smooth="yes"/>
      <point x="496" y="0" type="line"/>
      <point x="496" y="95" type="line"/>
      <point x="403" y="95" type="line" smooth="yes"/>
      <point x="263" y="95"/>
      <point x="152" y="185"/>
      <point x="152" y="335" type="curve" smooth="yes"/>
      <point x="152" y="485"/>
      <point x="263" y="575"/>
      <point x="403" y="575" type="curve" smooth="yes"/>
      <point x="496" y="575" type="line"/>
    </contour>
    <component base="E" xOffset="389"/>
    <contour>
      <point x="403" y="670" type="move" name="top"/>
    </contour>
  </outline>
</glyph>
<glyph name="tcaron" format="1">
  <advance width="442"/>
  <unicode hex="0165"/>
  <outline>
    <contour>
      <point x="285" y="530" type="line"/>
      <point x="352" y="530" type="line"/>
      <point x="382" y="718" type="line"/>
      <point x="295" y="718" type="line"/>
    </contour>
    <component base="t"/>
  </outline>
</glyph>
<glyph name="tbar" format="1">
  <advance width="428"/>
  <unicode hex="0167"/>
  <outline>
    <contour>
      <point x="43" y="293" type="line"/>
      <point x="43" y="223" type="line"/>
      <point x="363" y="223" type="line"/>
      <point x="363" y="293" type="line"/>
    </contour>
    <component base="t"/>
  </outline>
</glyph>
<glyph name="circumflex" format="1">
  <advance width="484"/>
  <unicode hex="02C6"/>
  <outline>
    <contour>
      <point x="220" y="720" type="line"/>
      <point x="80" y="581" type="line"/>
      <point x="162" y="581" type="line"/>
      <point x="242" y="659" type="line"/>
      <point x="322" y="581" type="line"/>
      <point x="404" y="581" type="line"/>
      <point x="264" y="720" type="line"/>
    </contour>
    <contour>
      <point x="242" y="500" type="move" name="_top"/>
    </contour>
  </outline>
</glyph>
<glyph name="breve" format="1">
  <advance width="484"/>
  <unicode hex="02D8"/>
  <outline>
    <contour>
      <point x="332" y="720" type="line"/>
      <point x="326" y="672"/>
      <point x="295" y="638"/>
      <point x="242" y="638" type="curve" smooth="yes"/>
      <point x="189" y="638"/>
      <point x="158" y="672"/>
      <point x="152" y="720" type="curve"/>
      <point x="80" y="720" type="line"/>
      <point x="83" y="628"/>
      <point x="152" y="570"/>
      <point x="242" y="570" type="curve" smooth="yes"/>
      <point x="332" y="570"/>
      <point x="401" y="628"/>
      <point x="404" y="720" type="curve"/>
    </contour>
    <contour>
      <point x="242" y="500" type="move" name="_top"/>
    </contour>
  </outline>
</glyph>
<glyph name="dotaccent" format="1">
  <advance width="300"/>
  <unicode hex="02D9"/>
  <outline>
    <contour>
      <point x="115" y="720"/>
      <point x="87" y="692"/>
      <point x="87" y="657" type="curve" smooth="yes"/>
      <point x="87" y="623"/>
      <point x="115" y="594"/>
      <point x="150" y="594" type="curve"/>
      <point x="184" y="594"/>
      <point x="213" y="623"/>
      <point x="213" y="657" type="curve" smooth="yes"/>
      <point x="213" y="692"/>
      <point x="184" y="720"/>
      <point x="150" y="720" type="curve" smooth="yes"/>
    </contour>
    <contour>
      <point x="150" y="500" type="move" name="_top"/>
    </contour>
  </outline>
</glyph>
<glyph name="ring" format="1">
  <advance width="325"/>
  <unicode hex="02DA"/>
  <outline>
    <contour>
      <point x="115" y="725"/>
      <point x="80" y="687"/>
      <point x="80" y="642" type="curve" smooth="yes"/>
      <point x="80" y="597"/>
      <point x="115" y="559"/>
      <point x="163" y="559" type="curve" smooth="yes"/>
      <point x="211" y="559"/>
      <point x="245" y="597"/>
      <point x="245" y="642" type="curve" smooth="yes"/>
      <point x="245" y="687"/>
      <point x="211" y="725"/>
      <point x="163" y="725" type="curve" smooth="yes"/>
    </contour>
    <contour>
      <point x="185" y="684"/>
      <point x="203" y="664"/>
      <point x="203" y="642" type="curve" smooth="yes"/>
      <point x="203" y="619"/>
      <point x="185" y="600"/>
      <point x="163" y="600" type="curve" smooth="yes"/>
      <point x="140" y="600"/>
      <point x="122" y="619"/>
      <point x="122" y="642" type="curve" smooth="yes"/>
      <point x="122" y="664"/>
      <point x="140" y="684"/>
      <point x="163" y="684" type="curve" smooth="yes"/>
    </contour>
    <contour>
      <point x="163" y="500" type="move" name="_top"/>
    </contour>
  </outline>
</glyph>
<glyph name="ogonek" format="1">
  <advance width="600"/>
  <unicode hex="02DB"/>
  <outline>
    <contour>
      <point x="257" y="-12"/>
      <point x="183" y="-56"/>
      <point x="183" y="-126" type="curve" smooth="yes"/>
      <point x="183" y="-192"/>
      <point x="240" y="-225"/>
      <point x="300" y="-225" type="curve" smooth="yes"/>
      <point x="336" y="-225"/>
      <point x="360" y="-207"/>
      <point x="374" y="-200" type="curve"/>
      <point x="374" y="-131" type="line"/>
      <point x="359" y="-141"/>
      <point x="343" y="-149"/>
      <point x="320" y="-149" type="curve" smooth="yes"/>
      <point x="285" y="-149"/>
      <point x="267" y="-126"/>
      <point x="267" y="-98" type="curve" smooth="yes"/>
      <point x="267" y="-54"/>
      <point x="327" y="-18"/>
      <point x="374" y="1" type="curve"/>
      <point x="294" y="1" type="line"/>
    </contour>
    <contour>
      <point x="379" y="10" type="move" name="_ogonek"/>
    </contour>
  </outline>
</glyph>
<glyph name="tilde" format="1">
  <advance width="470"/>
  <unicode hex="02DC"/>
  <outline>
    <contour>
      <point x="342" y="720" type="line"/>
      <point x="342" y="695"/>
      <point x="330" y="674"/>
      <point x="306" y="674" type="curve" smooth="yes"/>
      <point x="264" y="674"/>
      <point x="253" y="725"/>
      <point x="180" y="725" type="curve" smooth="yes"/>
      <point x="120" y="725"/>
      <point x="76" y="680"/>
      <point x="76" y="622" type="curve"/>
      <point x="144" y="622" type="line"/>
      <point x="144" y="647"/>
      <point x="157" y="668"/>
      <point x="180" y="668" type="curve" smooth="yes"/>
      <point x="222" y="668"/>
      <point x="233" y="617"/>
      <point x="306" y="617" type="curve" smooth="yes"/>
      <point x="366" y="617"/>
      <point x="410" y="662"/>
      <point x="410" y="720" type="curve"/>
    </contour>
    <contour>
      <point x="236" y="516" type="move" name="_top"/>
    </contour>
  </outline>
</glyph>
<glyph name="hungarumlaut" format="1">
  <advance width="475"/>
  <unicode hex="02DD"/>
  <outline>
    <component base="acute" xOffset="131"/>
    <component base="acute" xOffset="-20"/>
    <contour>
      <point x="203" y="500" type="move" name="_top"/>
    </contour>
  </outline>
</glyph>
<glyph name="commaaccent" format="1">
  <advance width="285"/>
  <unicode hex="0326"/>
  <outline>
    <contour>
      <point x="118" y="-70" type="line"/>
      <point x="143" y="-70"/>
      <point x="172" y="-88"/>
      <point x="172" y="-119" type="curve" smooth="yes"/>
      <point x="172" y="-151"/>
      <point x="150" y="-173"/>
      <point x="114" y="-173" type="curve" smooth="yes"/>
      <point x="94" y="-173"/>
      <point x="76" y="-168"/>
      <point x="60" y="-155" type="curve"/>
      <point x="60" y="-207" type="line"/>
      <point x="73" y="-216"/>
      <point x="94" y="-225"/>
      <point x="122" y="-225" type="curve" smooth="yes"/>
      <point x="167" y="-225"/>
      <point x="225" y="-187"/>
      <point x="225" y="-116" type="curve" smooth="yes"/>
      <point x="225" y="-60"/>
      <point x="175" y="-22"/>
      <point x="118" y="-22" type="curve"/>
    </contour>
    <contour>
      <point x="152" y="0" type="move" name="_bottom"/>
    </contour>
  </outline>
</glyph>
<glyph name="endash" format="1">
  <advance width="610"/>
  <unicode hex="2013"/>
  <outline>
    <contour>
      <point x="60" y="298" type="line"/>
      <point x="60" y="208" type="line"/>
      <point x="550" y="208" type="line"/>
      <point x="550" y="298" type="line"/>
    </contour>
  </outline>
</glyph>
<glyph name="emdash" format="1">
  <advance width="888"/>
  <unicode hex="2014"/>
  <outline>
    <contour>
      <point x="828" y="298" type="line"/>
      <point x="60" y="298" type="line"/>
      <point x="60" y="208" type="line"/>
      <point x="828" y="208" type="line"/>
    </contour>
  </outline>
</glyph>
<glyph name="quoteleft" format="1">
  <advance width="232"/>
  <unicode hex="2018"/>
  <outline>
    <contour>
      <point x="40" y="431" type="line"/>
      <point x="122" y="403" type="line"/>
      <point x="212" y="672" type="line"/>
      <point x="150" y="688" type="line"/>
    </contour>
  </outline>
</glyph>
<glyph name="quoteright" format="1">
  <advance width="212"/>
  <unicode hex="2019"/>
  <outline>
    <contour>
      <point x="110" y="688" type="line"/>
      <point x="20" y="419" type="line"/>
      <point x="82" y="403" type="line"/>
      <point x="192" y="660" type="line"/>
    </contour>
  </outline>
</glyph>
<glyph name="dagger" format="1">
  <advance width="443"/>
  <unicode hex="2020"/>
  <outline>
    <contour>
      <point x="270" y="670" type="line"/>
      <point x="173" y="670" type="line"/>
      <point x="173" y="-100" type="line"/>
      <point x="270" y="-100" type="line"/>
    </contour>
    <contour>
      <point x="403" y="520" type="line"/>
      <point x="40" y="520" type="line"/>
      <point x="40" y="440" type="line"/>
      <point x="403" y="440" type="line"/>
    </contour>
  </outline>
</glyph>
<glyph name="daggerdbl" format="1">
  <advance width="600"/>
  <unicode hex="2021"/>
  <outline>
    <contour>
      <point x="173" y="670" type="line"/>
      <point x="173" y="-100" type="line"/>
      <point x="270" y="-100" type="line"/>
      <point x="270" y="670" type="line"/>
    </contour>
    <contour>
      <point x="40" y="520" type="line"/>
      <point x="40" y="440" type="line"/>
      <point x="403" y="440" type="line"/>
      <point x="403" y="520" type="line"/>
    </contour>
    <contour>
      <point x="40" y="265" type="line"/>
      <point x="40" y="185" type="line"/>
      <point x="403" y="185" type="line"/>
      <point x="403" y="265" type="line"/>
    </contour>
  </outline>
</glyph>
<glyph name="bullet" format="1">
  <advance width="423"/>
  <unicode hex="2022"/>
  <outline>
    <contour>
      <point x="211" y="435" type="curve" smooth="yes"/>
      <point x="138" y="435"/>
      <point x="80" y="376"/>
      <point x="80" y="303" type="curve" smooth="yes"/>
      <point x="80" y="232"/>
      <point x="138" y="172"/>
      <point x="211" y="172" type="curve" smooth="yes"/>
      <point x="283" y="172"/>
      <point x="343" y="232"/>
      <point x="343" y="303" type="curve" smooth="yes"/>
      <point x="343" y="376"/>
      <point x="283" y="435"/>
    </contour>
  </outline>
</glyph>
<glyph name="guilsinglright" format="1">
  <advance width="405"/>
  <unicode hex="203A"/>
  <outline>
    <contour>
      <point x="100" y="468" type="line"/>
      <point x="100" y="363" type="line"/>
      <point x="240" y="254" type="line"/>
      <point x="100" y="137" type="line"/>
      <point x="100" y="32" type="line"/>
      <point x="335" y="235" type="line"/>
      <point x="335" y="273" type="line"/>
    </contour>
  </outline>
</glyph>
<glyph name="fraction" format="1">
  <advance width="103"/>
  <unicode hex="2044"/>
  <outline>
    <contour>
      <point x="353" y="670" type="line"/>
      <point x="272" y="670" type="line"/>
      <point x="-250" y="0" type="line"/>
      <point x="-172" y="0" type="line"/>
    </contour>
  </outline>
</glyph>
<glyph name="Euro" format="1">
  <advance width="617"/>
  <unicode hex="20AC"/>
  <outline>
    <contour>
      <point x="396" y="685" type="curve" smooth="yes"/>
      <point x="214" y="685"/>
      <point x="113" y="527"/>
      <point x="113" y="335" type="curve" smooth="yes"/>
      <point x="113" y="143"/>
      <point x="214" y="-15"/>
      <point x="396" y="-15" type="curve" smooth="yes"/>
      <point x="463" y="-15"/>
      <point x="510" y="3"/>
      <point x="557" y="41" type="curve"/>
      <point x="557" y="131" type="line"/>
      <point x="517" y="97"/>
      <point x="468" y="73"/>
      <point x="396" y="73" type="curve" smooth="yes"/>
      <point x="266" y="73"/>
      <point x="205" y="185"/>
      <point x="205" y="335" type="curve" smooth="yes"/>
      <point x="205" y="485"/>
      <point x="266" y="597"/>
      <point x="396" y="597" type="curve" smooth="yes"/>
      <point x="472" y="597"/>
      <point x="530" y="551"/>
      <point x="567" y="514" type="curve"/>
      <point x="567" y="613" type="line"/>
      <point x="530" y="651"/>
      <point x="467" y="685"/>
    </contour>
    <contour>
      <point x="472" y="428" type="line"/>
      <point x="50" y="428" type="line"/>
      <point x="50" y="358" type="line"/>
      <point x="472" y="358" type="line"/>
    </contour>
    <contour>
      <point x="472" y="303" type="line"/>
      <point x="50" y="303" type="line"/>
      <point x="50" y="233" type="line"/>
      <point x="472" y="233" type="line"/>
    </contour>
  </outline>
</glyph>
<glyph name="euro" format="1">
  <advance width="617"/>
  <unicode hex="20AC"/>
  <outline>
    <contour>
      <point x="214" y="685"/>
      <point x="113" y="527"/>
      <point x="113" y="335" type="curve" smooth="yes"/>
      <point x="113" y="143"/>
      <point x="214" y="-15"/>
      <point x="396" y="-15" type="curve" smooth="yes"/>
      <point x="463" y="-15"/>
      <point x="510" y="3"/>
      <point x="557" y="41" type="curve"/>
      <point x="557" y="131" type="line"/>
      <point x="517" y="97"/>
      <point x="468" y="73"/>
      <point x="396" y="73" type="curve" smooth="yes"/>
      <point x="266" y="73"/>
      <point x="205" y="185"/>
      <point x="205" y="335" type="curve" smooth="yes"/>
      <point x="205" y="485"/>
      <point x="266" y="597"/>
      <point x="396" y="597" type="curve" smooth="yes"/>
      <point x="472" y="597"/>
      <point x="530" y="551"/>
      <point x="567" y="514" type="curve"/>
      <point x="567" y="613" type="line"/>
      <point x="530" y="651"/>
      <point x="467" y="685"/>
      <point x="396" y="685" type="curve" smooth="yes"/>
    </contour>
    <contour>
      <point x="50" y="428" type="line"/>
      <point x="50" y="358" type="line"/>
      <point x="472" y="358" type="line"/>
      <point x="472" y="428" type="line"/>
    </contour>
    <contour>
      <point x="50" y="303" type="line"/>
      <point x="50" y="233" type="line"/>
      <point x="472" y="233" type="line"/>
      <point x="472" y="303" type="line"/>
    </contour>
  </outline>
</glyph>
<glyph name="trademark" format="1">
  <advance width="511"/>
  <unicode hex="2122"/>
  <outline>
    <contour>
      <point x="445" y="670" type="line"/>
      <point x="367" y="563" type="line"/>
      <point x="286" y="670" type="line"/>
      <point x="259" y="670" type="line"/>
      <point x="259" y="467" type="line"/>
      <point x="312" y="467" type="line"/>
      <point x="312" y="565" type="line"/>
      <point x="358" y="501" type="line"/>
      <point x="376" y="501" type="line"/>
      <point x="418" y="565" type="line"/>
      <point x="418" y="467" type="line"/>
      <point x="471" y="467" type="line"/>
      <point x="471" y="670" type="line"/>
    </contour>
    <contour>
      <point x="109" y="670" type="line"/>
      <point x="109" y="467" type="line"/>
      <point x="161" y="467" type="line"/>
      <point x="161" y="670" type="line"/>
    </contour>
    <contour>
      <point x="40" y="671" type="line"/>
      <point x="40" y="629" type="line"/>
      <point x="230" y="629" type="line"/>
      <point x="230" y="671" type="line"/>
    </contour>
  </outline>
</glyph>
<glyph name="minus" format="1">
  <advance width="551"/>
  <unicode hex="2212"/>
  <outline>
    <contour>
      <point x="471" y="358" type="line"/>
      <point x="80" y="358" type="line"/>
      <point x="80" y="268" type="line"/>
      <point x="471" y="268" type="line"/>
    </contour>
  </outline>
</glyph>
<glyph name="notequal" format="1">
  <advance width="551"/>
  <unicode hex="2260"/>
  <outline>
    <contour>
      <point x="353" y="510" type="line"/>
      <point x="114" y="82" type="line"/>
      <point x="182" y="82" type="line"/>
      <point x="424" y="510" type="line"/>
    </contour>
    <component base="equal"/>
  </outline>
</glyph>
<glyph name="greaterequal" format="1">
  <advance width="533"/>
  <unicode hex="2265"/>
  <outline>
    <contour>
      <point x="80" y="602" type="line"/>
      <point x="80" y="521" type="line"/>
      <point x="363" y="363" type="line"/>
      <point x="80" y="194" type="line"/>
      <point x="80" y="113" type="line"/>
      <point x="453" y="341" type="line"/>
      <point x="453" y="383" type="line"/>
    </contour>
    <contour>
      <point x="453" y="74" type="line"/>
      <point x="80" y="74" type="line"/>
      <point x="80" y="0" type="line"/>
      <point x="453" y="0" type="line"/>
    </contour>
  </outline>
</glyph>
